<svg width="17" height="20" viewBox="0 0 17 20" fill="none" xmlns="http://www.w3.org/2000/svg">
<g clip-path="url(#clip0_245_222)">
<path d="M17 20H0V4.9992H4.85452C4.85452 4.9016 4.85452 4.81975 4.85452 4.7379C4.84662 4.16162 4.87422 3.58542 4.93716 3.01273C5.0763 2.21431 5.46972 1.48617 6.05546 0.943005C6.6412 0.39984 7.38598 0.0725141 8.17249 0.0125763C8.92863 -0.0608902 9.68806 0.112465 10.343 0.508034C10.9979 0.903604 11.5151 1.50129 11.821 2.21626C12.0351 2.73222 12.1395 3.2893 12.1271 3.85013C12.1271 4.16495 12.1271 4.47976 12.1271 4.79457C12.1271 4.85753 12.1271 4.92364 12.1271 5.00235H16.9786L17 20ZM1.19373 18.7407H15.7971V6.25215H12.1394V9.98266H10.9395V6.25215H6.04213V9.98266H4.85146V6.25215H1.17843L1.19373 18.7407ZM10.9671 4.97716C10.9395 4.39475 10.9671 3.82495 10.8783 3.27088C10.7796 2.69584 10.4872 2.17492 10.0523 1.7996C9.61732 1.42428 9.06774 1.21857 8.5 1.21857C7.93226 1.21857 7.38268 1.42428 6.94775 1.7996C6.51282 2.17492 6.22036 2.69584 6.12171 3.27088C6.07008 3.82747 6.05066 4.38671 6.06356 4.94567C6.06356 4.94567 6.06356 4.96457 6.08804 4.98031L10.9671 4.97716Z" fill="#9C1210"/>
</g>
<defs>
<clipPath id="clip0_245_222">
<rect width="17" height="20" fill="white"/>
</clipPath>
</defs>
</svg>
