<svg width="31" height="28" viewBox="0 0 31 28" fill="none" xmlns="http://www.w3.org/2000/svg">
<g clip-path="url(#clip0_475_594)">
<path d="M27.6378 19.3626C27.6378 19.8317 27.6378 20.2587 27.6378 20.6715C27.6378 20.7935 27.4574 20.9296 27.3279 21.0047C27.1984 21.0797 27.1059 21.0047 26.9903 21.0047C20.8763 21.0047 14.7623 21.0047 8.64835 21.0047C8.15812 21.0047 7.92689 20.8921 7.81589 20.3619C7.17304 17.3592 6.4932 14.3706 5.82261 11.3773C5.22755 8.70617 4.62941 6.03817 4.02818 3.37329C3.92463 2.98547 3.84125 2.59238 3.77843 2.19567C3.72293 1.75934 3.51481 1.6139 3.08471 1.62798C2.08575 1.65144 1.08217 1.62798 0.0230947 1.62798C0.0230947 1.15881 -2.92693e-05 0.722485 0.0230947 0.295541C0.0476946 0.221347 0.0902151 0.15457 0.146759 0.101305C0.203304 0.0480399 0.27208 0.0099835 0.346836 -0.00941555C1.78052 -0.032874 3.2142 -0.0375657 4.64789 -0.00941555C4.73956 0.0180247 4.82345 0.0672292 4.89262 0.134136C4.96179 0.201042 5.01426 0.283712 5.04564 0.375292C5.41563 1.91886 5.75322 3.46712 6.10008 5.01068C6.69668 7.69433 7.28403 10.3827 7.8945 13.0616C8.11187 14.0234 8.13499 14 9.13858 14H25.0109C25.7832 14 25.7693 14 25.9774 13.2681C27.0411 9.58508 28.1187 5.90679 29.1732 2.22382C29.1854 2.14809 29.2125 2.07563 29.2528 2.01074C29.2932 1.94585 29.3461 1.88985 29.4082 1.84608C29.4703 1.80232 29.5405 1.77167 29.6145 1.75597C29.6885 1.74026 29.765 1.73981 29.8392 1.75465C30.1953 1.75465 30.5514 1.75465 31 1.75465C30.7456 2.66015 30.5375 3.45774 30.297 4.25063C29.2472 7.882 28.1881 11.5134 27.1475 15.1494C27.0412 15.5154 26.9117 15.6796 26.4816 15.6749C20.7329 15.6749 14.9797 15.6749 9.22645 15.6749C8.48648 15.6749 8.48648 15.6749 8.64835 16.3927C8.81022 17.1106 9.03221 17.9175 9.14783 18.687C9.22646 19.2265 9.47155 19.3485 9.9664 19.3485C15.6549 19.3485 21.3403 19.3485 27.0226 19.3485L27.6378 19.3626Z" fill="#9C1210"/>
<path d="M18.0737 11.3258C17.6112 11.3258 17.232 11.3258 16.8574 11.3258C16.4828 11.3258 16.4597 11.1991 16.4643 10.9082C16.4643 10.0403 16.4643 9.17228 16.4643 8.30432C16.4643 7.92898 16.3487 7.80231 16.0018 7.8117C15.1601 7.83516 14.3184 7.8117 13.4813 7.8117C13.1529 7.8117 12.9911 7.72725 13.0188 7.34253C13.0466 6.95781 13.0188 6.61063 13.0188 6.16023H14.6513C15.1138 6.16023 15.5393 6.16023 15.9833 6.16023C16.3486 6.16023 16.4828 6.03355 16.4781 5.66291C16.4781 4.81372 16.4781 3.95982 16.4781 3.10593C16.4781 2.77282 16.5799 2.60862 16.9406 2.63677C17.3014 2.66492 17.6621 2.63677 18.1014 2.63677V4.7105C18.1014 6.16492 18.1014 6.16491 19.5351 6.16491H21.5747C21.6029 6.60546 21.6029 7.04742 21.5747 7.48797C21.5747 7.60995 21.2879 7.77416 21.1122 7.77885C20.2751 7.807 19.4334 7.80231 18.5963 7.77885C18.2309 7.77885 18.0922 7.91022 18.1014 8.27617C18.1014 9.11129 18.1014 9.94642 18.1014 10.7815L18.0737 11.3258Z" fill="#9C1210"/>
<path d="M9.92015 28C9.12976 27.9963 8.37293 27.6755 7.81491 27.1076C7.25688 26.5397 6.94299 25.771 6.94178 24.9691C6.94087 24.368 7.11594 23.7801 7.44479 23.28C7.77364 22.7799 8.24147 22.3901 8.78896 22.16C9.33644 21.93 9.93895 21.87 10.5201 21.9877C11.1012 22.1055 11.6348 22.3956 12.0531 22.8214C12.4715 23.2471 12.7559 23.7893 12.8701 24.3792C12.9844 24.9691 12.9234 25.5801 12.6949 26.1348C12.4665 26.6895 12.0808 27.1629 11.5868 27.4949C11.0928 27.827 10.5127 28.0028 9.92015 28ZM9.92015 26.325C10.0986 26.3313 10.2764 26.3014 10.4433 26.237C10.6102 26.1726 10.7627 26.075 10.892 25.9501C11.0212 25.8251 11.1245 25.6752 11.1959 25.5092C11.2673 25.3431 11.3052 25.1643 11.3076 24.9832C11.2915 24.6302 11.1452 24.2962 10.8976 24.0476C10.6499 23.799 10.3192 23.654 9.97101 23.6414C9.79763 23.6389 9.62551 23.6716 9.46478 23.7376C9.30405 23.8036 9.15796 23.9016 9.03513 24.0258C8.9123 24.1499 8.81521 24.2978 8.74958 24.4606C8.68394 24.6234 8.65109 24.7979 8.65296 24.9738C8.64292 25.1465 8.66758 25.3193 8.72542 25.482C8.78325 25.6446 8.87305 25.7937 8.9894 25.92C9.10575 26.0464 9.24621 26.1475 9.40223 26.2171C9.55825 26.2867 9.72659 26.3234 9.89703 26.325H9.92015Z" fill="#9C1210"/>
<path d="M24.5901 28C23.8014 27.9832 23.0516 27.6492 22.5056 27.0716C21.9596 26.494 21.6622 25.72 21.6788 24.9199C21.6953 24.1198 22.0245 23.3592 22.5939 22.8053C23.1633 22.2514 23.9262 21.9497 24.7149 21.9665C25.4963 22.0001 26.235 22.3367 26.7789 22.9067C27.3228 23.4768 27.6302 24.2369 27.6378 25.0302C27.6184 25.8328 27.2873 26.5952 26.7165 27.1514C26.1457 27.7076 25.3814 28.0126 24.5901 28ZM25.9775 25.0208C25.98 24.6614 25.8433 24.3155 25.5967 24.0574C25.3502 23.7994 25.0136 23.65 24.6594 23.6414C24.3216 23.6617 24.0041 23.8121 23.7719 24.062C23.5397 24.3118 23.4104 24.6422 23.4104 24.9856C23.4104 25.329 23.5397 25.6593 23.7719 25.9092C24.0041 26.159 24.3216 26.3095 24.6594 26.3298C25.0039 26.3286 25.3344 26.1912 25.5805 25.9468C25.8267 25.7023 25.9691 25.3701 25.9775 25.0208Z" fill="#9C1210"/>
<path d="M9.89704 26.325C9.72349 26.3286 9.55109 26.2956 9.39069 26.2283C9.2303 26.161 9.08541 26.0607 8.96508 25.9338C8.84475 25.8068 8.75161 25.656 8.69153 25.4908C8.63145 25.3256 8.60572 25.1496 8.61596 24.9738C8.61409 24.7979 8.64695 24.6234 8.71259 24.4606C8.77822 24.2978 8.8753 24.1499 8.99813 24.0257C9.12097 23.9016 9.26705 23.8036 9.42779 23.7376C9.58852 23.6716 9.76063 23.6389 9.93402 23.6414C10.2822 23.654 10.6129 23.799 10.8606 24.0476C11.1082 24.2962 11.2546 24.6302 11.2706 24.9832C11.2682 25.1631 11.2307 25.3407 11.1602 25.5058C11.0897 25.6708 10.9876 25.8201 10.8598 25.9449C10.7321 26.0697 10.5812 26.1675 10.416 26.2328C10.2507 26.298 10.0743 26.3294 9.89704 26.325Z" fill="white"/>
<path d="M25.9775 25.0207C25.969 25.3741 25.8234 25.7099 25.5723 25.955C25.3211 26.2001 24.9848 26.3347 24.6363 26.3297C24.2985 26.3094 23.981 26.159 23.7488 25.9091C23.5166 25.6593 23.3873 25.3289 23.3873 24.9855C23.3873 24.6422 23.5166 24.3118 23.7488 24.0619C23.981 23.8121 24.2985 23.6616 24.6363 23.6414C24.8137 23.6426 24.989 23.6792 25.1524 23.7492C25.3158 23.8192 25.464 23.9212 25.5885 24.0492C25.7131 24.1773 25.8115 24.329 25.8783 24.4957C25.945 24.6624 25.9787 24.8408 25.9775 25.0207Z" fill="white"/>
</g>
<defs>
<clipPath id="clip0_475_594">
<rect width="31" height="28" fill="white"/>
</clipPath>
</defs>
</svg>
