<svg width="25" height="23" viewBox="0 0 25 23" fill="none" xmlns="http://www.w3.org/2000/svg">
<g clip-path="url(#clip0_468_187)">
<path d="M22.2886 15.905C22.2886 16.2904 22.2886 16.6411 22.2886 16.9802C22.2886 17.0804 22.1431 17.1922 22.0387 17.2539C21.9342 17.3155 21.8596 17.2539 21.7664 17.2539C16.8358 17.2539 11.9051 17.2539 6.97451 17.2539C6.57917 17.2539 6.39269 17.1614 6.30318 16.7259C5.78475 14.2594 5.23649 11.8045 4.69569 9.34568C4.2158 7.15154 3.73343 4.95996 3.24857 2.77095C3.16506 2.45238 3.09782 2.12949 3.04716 1.80362C3.0024 1.44521 2.83457 1.32574 2.48771 1.3373C1.6821 1.35657 0.872759 1.3373 0.0186641 1.3373C0.0186641 0.951916 1.57728e-05 0.593506 0.0186641 0.242802C0.0385028 0.181857 0.0727935 0.127004 0.118394 0.0832506C0.163994 0.0394973 0.219459 0.00823669 0.279746 -0.00769824C1.43594 -0.0269677 2.59214 -0.0308216 3.74834 -0.00769824C3.82226 0.014842 3.88992 0.0552599 3.9457 0.110219C4.00148 0.165178 4.0438 0.233085 4.06911 0.308312C4.36748 1.57624 4.63973 2.84803 4.91946 4.11595C5.40059 6.32038 5.87426 8.52866 6.36658 10.7292C6.54187 11.5193 6.56052 11.5 7.36986 11.5H20.1701C20.793 11.5 20.7818 11.5 20.9496 10.8988C21.8074 7.8735 22.6764 4.85205 23.5268 1.82674C23.5367 1.76454 23.5585 1.70502 23.591 1.65172C23.6236 1.59841 23.6662 1.55241 23.7163 1.51646C23.7664 1.48051 23.823 1.45534 23.8827 1.44244C23.9424 1.42954 24.004 1.42916 24.0639 1.44136C24.3511 1.44136 24.6383 1.44136 25 1.44136C24.7949 2.18516 24.6271 2.84032 24.4331 3.49163C23.5865 6.47454 22.7324 9.45745 21.8932 12.4442C21.8074 12.7448 21.703 12.8797 21.3561 12.8758C16.7201 12.8758 12.0804 12.8758 7.44072 12.8758C6.84398 12.8758 6.84398 12.8758 6.97451 13.4655C7.10505 14.0551 7.28408 14.718 7.37733 15.35C7.44073 15.7932 7.63839 15.8934 8.03746 15.8934C12.625 15.8934 17.21 15.8934 21.7925 15.8934L22.2886 15.905Z" fill="#9C1210"/>
<path d="M14.5756 9.30329C14.2026 9.30329 13.8968 9.30329 13.5947 9.30329C13.2926 9.30329 13.2739 9.19924 13.2777 8.9603C13.2777 8.24733 13.2777 7.53435 13.2777 6.82138C13.2777 6.51307 13.1844 6.40902 12.9047 6.41673C12.2259 6.436 11.5471 6.41673 10.872 6.41673C10.6072 6.41673 10.4767 6.34736 10.499 6.03134C10.5214 5.71532 10.499 5.43014 10.499 5.06016H11.8156C12.1886 5.06016 12.5317 5.06016 12.8898 5.06016C13.1844 5.06016 13.2926 4.95611 13.2888 4.65165C13.2888 3.9541 13.2888 3.25269 13.2888 2.55128C13.2888 2.27765 13.3709 2.14277 13.6618 2.16589C13.9527 2.18901 14.2436 2.16589 14.598 2.16589V3.86931C14.598 5.06402 14.5979 5.06401 15.7541 5.06401H17.3989C17.4217 5.42589 17.4217 5.78893 17.3989 6.15081C17.3989 6.25101 17.1677 6.38589 17.026 6.38975C16.3509 6.41287 15.6721 6.40902 14.997 6.38975C14.7024 6.38975 14.5905 6.49766 14.598 6.79826C14.598 7.48425 14.598 8.17025 14.598 8.85625L14.5756 9.30329Z" fill="#9C1210"/>
<path d="M8.00018 23C7.36277 22.9969 6.75243 22.7334 6.30241 22.267C5.85239 21.8005 5.59925 21.169 5.59827 20.5104C5.59754 20.0166 5.73872 19.5337 6.00393 19.1228C6.26913 18.712 6.64641 18.3919 7.08793 18.2029C7.52945 18.0139 8.01534 17.9647 8.48399 18.0614C8.95263 18.1581 9.38293 18.3964 9.72033 18.7462C10.0577 19.0959 10.287 19.5412 10.3792 20.0258C10.4713 20.5103 10.4222 21.0122 10.2379 21.4679C10.0537 21.9235 9.74262 22.3124 9.34424 22.5851C8.94586 22.8579 8.47807 23.0023 8.00018 23ZM8.00018 21.6242C8.14408 21.6293 8.28751 21.6047 8.42209 21.5518C8.55667 21.4989 8.67969 21.4188 8.7839 21.3161C8.88812 21.2135 8.97145 21.0903 9.029 20.954C9.08656 20.8176 9.11718 20.6707 9.11908 20.522C9.10615 20.232 8.98811 19.9576 8.78841 19.7534C8.58871 19.5492 8.32197 19.4301 8.0412 19.4197C7.90137 19.4177 7.76257 19.4445 7.63295 19.4988C7.50333 19.553 7.38551 19.6335 7.28646 19.7355C7.1874 19.8375 7.10911 19.9589 7.05617 20.0927C7.00324 20.2264 6.97675 20.3698 6.97825 20.5142C6.97016 20.656 6.99005 20.798 7.03669 20.9317C7.08333 21.0653 7.15575 21.1877 7.24958 21.2915C7.34341 21.3953 7.45668 21.4783 7.5825 21.5355C7.70833 21.5927 7.84408 21.6228 7.98154 21.6242H8.00018Z" fill="#9C1210"/>
<path d="M19.8307 23C19.1946 22.9862 18.5899 22.7119 18.1496 22.2374C17.7093 21.7629 17.4695 21.1271 17.4828 20.4699C17.4962 19.8127 17.7617 19.1879 18.2208 18.7329C18.68 18.278 19.2953 18.0301 19.9314 18.0439C20.5615 18.0715 21.1573 18.348 21.5958 18.8162C22.0344 19.2845 22.2824 19.9089 22.2885 20.5605C22.2729 21.2198 22.0058 21.8461 21.5455 22.303C21.0852 22.7599 20.4688 23.0104 19.8307 23ZM20.9496 20.5528C20.9516 20.2576 20.8413 19.9734 20.6425 19.7615C20.4437 19.5495 20.1722 19.4268 19.8866 19.4197C19.6141 19.4364 19.3581 19.56 19.1709 19.7652C18.9836 19.9704 18.8793 20.2418 18.8793 20.5239C18.8793 20.8059 18.9836 21.0773 19.1709 21.2826C19.3581 21.4878 19.6141 21.6114 19.8866 21.628C20.1644 21.6271 20.4309 21.5142 20.6294 21.3134C20.8279 21.1126 20.9428 20.8397 20.9496 20.5528Z" fill="#9C1210"/>
<path d="M7.98155 21.6242C7.84159 21.6271 7.70255 21.6 7.57321 21.5447C7.44386 21.4894 7.32701 21.407 7.22997 21.3028C7.13293 21.1985 7.05782 21.0747 7.00936 20.939C6.96091 20.8032 6.94016 20.6587 6.94842 20.5143C6.94692 20.3698 6.97341 20.2264 7.02635 20.0927C7.07928 19.9589 7.15757 19.8375 7.25663 19.7355C7.35568 19.6335 7.4735 19.553 7.60312 19.4988C7.73274 19.4446 7.87154 19.4177 8.01137 19.4197C8.29215 19.4301 8.55888 19.5492 8.75858 19.7534C8.95828 19.9576 9.07632 20.232 9.08925 20.522C9.08732 20.6697 9.05706 20.8156 9.0002 20.9512C8.94334 21.0868 8.86101 21.2094 8.75799 21.3119C8.65497 21.4144 8.53332 21.4948 8.40005 21.5484C8.26677 21.602 8.12452 21.6277 7.98155 21.6242Z" fill="white"/>
<path d="M20.9496 20.5528C20.9427 20.8431 20.8253 21.1189 20.6228 21.3202C20.4202 21.5216 20.149 21.6322 19.868 21.628C19.5955 21.6114 19.3395 21.4878 19.1522 21.2826C18.965 21.0773 18.8607 20.8059 18.8607 20.5239C18.8607 20.2418 18.965 19.9704 19.1522 19.7652C19.3395 19.56 19.5955 19.4364 19.868 19.4197C20.011 19.4207 20.1524 19.4509 20.2842 19.5083C20.4159 19.5658 20.5354 19.6496 20.6359 19.7548C20.7363 19.86 20.8157 19.9846 20.8695 20.1215C20.9234 20.2585 20.9506 20.405 20.9496 20.5528Z" fill="white"/>
</g>
<defs>
<clipPath id="clip0_468_187">
<rect width="25" height="23" fill="white"/>
</clipPath>
</defs>
</svg>
