<svg width="14" height="14" viewBox="0 0 14 14" fill="none" xmlns="http://www.w3.org/2000/svg">
<g clip-path="url(#clip0_621_112)">
<path d="M0.953212 0C2.99859 2.03015 4.99309 4.01034 7.00968 6.01143C9.02782 4.02615 11.0372 2.04902 13.0703 0.0494538C13.3869 0.378806 13.6861 0.680116 13.9668 0.997232C13.9966 1.03088 13.9431 1.18179 13.8876 1.23838C13.2271 1.90473 12.5583 2.56344 11.8926 3.22469C10.6753 4.43299 9.46219 5.64487 8.23825 6.84603C8.06707 7.01427 8.07478 7.10808 8.24082 7.27276C10.1047 9.12447 11.9615 10.9828 13.8197 12.8401C14.0624 13.0828 14.0608 13.0843 13.8136 13.3296C13.626 13.5157 13.428 13.6931 13.2533 13.8904C13.114 14.0474 13.0214 14.026 12.8811 13.8868C11.4094 12.4272 9.93151 10.9731 8.45518 9.51806C8.03623 9.1051 7.61677 8.69213 7.19628 8.28019C7.13665 8.22156 7.07086 8.16905 6.9958 8.10328C6.90893 8.18179 6.8308 8.24654 6.75934 8.31792C4.89953 10.1625 3.03818 12.005 1.18556 13.8562C1.0113 14.0306 0.90592 14.0428 0.740398 13.8583C0.553286 13.6497 0.345098 13.456 0.128171 13.2776C-0.0532868 13.1282 -0.0291267 13.0318 0.128171 12.8758C1.65385 11.3621 3.17234 9.84028 4.69237 8.32098C5.04809 7.96511 5.39558 7.60007 5.76313 7.25645C5.93225 7.0984 5.91374 7.00663 5.75696 6.85164C3.87967 4.99993 2.01317 3.13955 0.136396 1.28937C-0.0301548 1.12469 -0.0471182 1.03088 0.128685 0.865186C0.406783 0.603132 0.658151 0.313037 0.953212 0Z" fill="#9C1210"/>
</g>
<defs>
<clipPath id="clip0_621_112">
<rect width="14" height="14" fill="white"/>
</clipPath>
</defs>
</svg>
