<svg width="17" height="17" viewBox="0 0 17 17" fill="none" xmlns="http://www.w3.org/2000/svg">
<g clip-path="url(#clip0_449_62)">
<path d="M1.15787 0C3.64155 2.46519 6.06344 4.8697 8.51216 7.2996C10.9628 4.88889 13.4027 2.48809 15.8714 0.060051C16.2559 0.459978 16.6192 0.825856 16.96 1.21092C16.9962 1.25178 16.9313 1.43503 16.8639 1.50375C16.0618 2.31289 15.2497 3.11275 14.4414 3.9157C12.9633 5.38292 11.4902 6.85448 10.004 8.31304C9.79613 8.51733 9.8055 8.63125 10.0071 8.83121C12.2704 11.0797 14.525 13.3363 16.7815 15.5916C17.0761 15.8863 17.0743 15.8881 16.774 16.1859C16.5462 16.4119 16.3059 16.6273 16.0937 16.8669C15.9245 17.0576 15.8121 17.0316 15.6417 16.8626C13.8547 15.0901 12.0601 13.3245 10.2674 11.5576C9.75868 11.0562 9.24934 10.5547 8.73874 10.0545C8.66634 9.98332 8.58644 9.91956 8.49531 9.83969C8.38982 9.93503 8.29494 10.0137 8.20818 10.1003C5.94983 12.3402 3.68962 14.5775 1.44001 16.8254C1.22841 17.0371 1.10045 17.052 0.899456 16.8279C0.672248 16.5747 0.419448 16.3394 0.156037 16.1228C-0.0643043 15.9414 -0.034967 15.8244 0.156037 15.6349C2.00865 13.7969 3.85253 11.9489 5.69828 10.104C6.13023 9.67192 6.55218 9.22866 6.99848 8.8114C7.20384 8.61948 7.18137 8.50805 6.99099 8.31985C4.71143 6.07134 2.44497 3.81231 0.166024 1.56566C-0.0362154 1.3657 -0.0568139 1.25178 0.156661 1.05058C0.494352 0.732374 0.799584 0.380117 1.15787 0Z" fill="#9C1210"/>
</g>
<defs>
<clipPath id="clip0_449_62">
<rect width="17" height="17" fill="white"/>
</clipPath>
</defs>
</svg>
