<svg width="44" height="35" viewBox="0 0 44 35" fill="none" xmlns="http://www.w3.org/2000/svg">
<g clip-path="url(#clip0_561_102)">
<path d="M28.0837 26.2669H25.3362C26.4096 23.0413 27.4669 19.8595 28.5202 16.6817C28.4882 16.6657 28.4522 16.6498 28.4201 16.6339C27.523 18.0277 26.6258 19.4254 25.7167 20.8391C24.4751 20.0626 23.2615 19.302 22.032 18.5294C23.65 16.0126 25.2481 13.5317 26.8461 11.0507C27.2787 10.3738 27.6952 9.68484 28.1438 9.0198C28.2279 8.89237 28.4321 8.76892 28.5843 8.76892C31.5521 8.75299 34.5159 8.75299 37.4836 8.76892C37.6238 8.76892 37.8201 8.87246 37.8962 8.99193C39.8947 12.0861 41.8772 15.1883 43.8638 18.2905C43.9078 18.3622 43.9479 18.4378 44.0039 18.5414C42.7864 19.302 41.5849 20.0546 40.3313 20.8391C39.4301 19.4374 38.537 18.0476 37.6398 16.6538C37.6038 16.6697 37.5678 16.6817 37.5317 16.6976C38.5851 19.8714 39.6424 23.0453 40.7118 26.2709H37.9803V34.992H33.6067V26.2988H32.4573V34.996H28.0837V26.2709V26.2669Z" fill="#9C1210"/>
<path d="M15.9643 35H11.5787V24.0966H10.4293V35H6.06372V17.4184C6.02367 17.4024 5.98362 17.3865 5.94356 17.3706C5.19862 18.5175 4.45367 19.6644 3.68869 20.8391C2.45512 20.0705 1.24559 19.3139 0 18.5374C0.584744 17.6254 1.15347 16.7454 1.71819 15.8613C3.17604 13.5835 4.62989 11.3056 6.09976 9.03971C6.18788 8.90432 6.41216 8.77689 6.57236 8.77689C9.52412 8.76096 12.4759 8.76096 15.4276 8.77689C15.5718 8.77689 15.7761 8.86848 15.8522 8.98396C17.8868 12.1379 19.9093 15.3038 21.9319 18.4657C21.9399 18.4776 21.9399 18.4936 21.9599 18.5573C20.7624 19.306 19.5489 20.0666 18.2993 20.8471C17.5463 19.6883 16.8014 18.5414 16.0564 17.3945C16.0284 17.3945 15.9964 17.4024 15.9683 17.4024V35.008L15.9643 35Z" fill="#9C1210"/>
<path d="M14.2821 3.3212C14.2701 5.07339 12.7762 6.53886 10.9979 6.54284C9.21165 6.55081 7.68972 5.0495 7.70173 3.28934C7.70974 1.46149 9.19563 -0.0159235 11.0059 5.53561e-06C12.8323 0.0159345 14.2941 1.50131 14.2781 3.3212H14.2821Z" fill="#9C1210"/>
<path d="M29.7297 3.2973C29.7337 1.46945 31.2156 -0.00796297 33.0299 1.53315e-06C34.8482 0.00796603 36.3181 1.48936 36.3141 3.31323C36.3061 5.06144 34.8202 6.52691 33.0379 6.54284C31.2557 6.55877 29.7297 5.06144 29.7337 3.2973H29.7297Z" fill="#9C1210"/>
</g>
<defs>
<clipPath id="clip0_561_102">
<rect width="44" height="35" fill="white"/>
</clipPath>
</defs>
</svg>
