<svg width="17" height="20" viewBox="0 0 17 20" fill="none" xmlns="http://www.w3.org/2000/svg">
<g clip-path="url(#clip0_681_122)">
<path d="M0 3.73293V2.50234H0.262267C1.49346 2.50234 2.72102 2.4986 3.95222 2.50608C4.14892 2.50608 4.25455 2.43875 4.3529 2.27043C4.76087 1.57846 5.1907 0.8977 5.59867 0.205723C5.68974 0.044885 5.79537 0 5.96657 0C7.66038 0.00748083 9.35419 0.00748083 11.048 0C11.2119 0 11.3139 0.044885 11.4013 0.194502C11.8129 0.893959 12.2464 1.57846 12.658 2.27791C12.76 2.44997 12.8729 2.50608 13.066 2.50234C14.2863 2.49112 15.5102 2.4986 16.7341 2.4986H17.0036V3.72919C16.6649 3.72919 16.3188 3.74041 15.9764 3.72545C15.7688 3.71423 15.7251 3.78904 15.7105 3.99102C15.5867 5.86871 15.4446 7.74266 15.3135 9.62035C15.1969 11.2661 15.0876 12.9157 14.9711 14.5614C14.8472 16.3419 14.7197 18.1261 14.5922 19.9065C14.5922 19.9215 14.5813 19.9364 14.5667 19.9776C14.4975 19.9813 14.4138 19.9925 14.3336 19.9925C10.4433 19.9925 6.55303 19.9925 2.66274 19.9963C2.45875 19.9963 2.4114 19.9364 2.39683 19.7307C2.28755 18.0662 2.1637 16.4055 2.04714 14.741C1.94879 13.3159 1.85044 11.8908 1.75209 10.4657C1.63553 8.81242 1.51532 7.15541 1.39876 5.50215C1.36233 5.00468 1.31498 4.50346 1.30041 4.00598C1.29312 3.77034 1.21298 3.71423 1.00171 3.72545C0.677523 3.74416 0.353332 3.72919 0 3.72919L0 3.73293ZM2.48061 3.7479C2.83758 8.76753 3.19091 13.7572 3.54789 18.7507H13.4667C13.82 13.7498 14.177 8.75631 14.5303 3.7479H2.48061ZM11.3685 2.49112C11.1354 2.10959 10.9205 1.77296 10.7238 1.42136C10.6437 1.27922 10.549 1.23434 10.3887 1.23434C9.29226 1.24182 8.1922 1.27174 7.09942 1.22312C6.58217 1.20067 6.23977 1.32411 6.03578 1.8328C5.94472 2.05723 5.78809 2.25547 5.64603 2.48738H11.3685V2.49112Z" fill="#333333" fill-opacity="0.63"/>
<path d="M2.48021 3.74414H14.5299C14.1729 8.75256 13.8196 13.7423 13.4663 18.7469H3.54384C3.19051 13.7572 2.83354 8.76752 2.47656 3.74414H2.48021Z" fill="white"/>
</g>
<defs>
<clipPath id="clip0_681_122">
<rect width="17" height="20" fill="white"/>
</clipPath>
</defs>
</svg>
