<svg width="33" height="33" viewBox="0 0 33 33" fill="none" xmlns="http://www.w3.org/2000/svg">
<rect width="32.8947" height="32.8947" fill="white"/>
<g clip-path="url(#clip0_242_106)">
<path d="M14.4465 26.3149V18.4125H11.5165V15.1413H14.4594C14.4594 14.6504 14.4594 14.2209 14.4594 13.7903C14.4594 13.2222 14.4465 12.6541 14.4875 12.086C14.6587 9.73852 16.1682 8.30347 18.6189 8.2228C19.5261 8.19439 20.4391 8.32278 21.3837 8.38073V11.1747C20.9888 11.1747 20.5891 11.1747 20.1906 11.1747C18.6576 11.1929 18.0235 11.8087 18.0095 13.2926C18.0095 13.8767 18.0095 14.4607 18.0095 15.1197H21.2794C21.1048 16.2434 20.943 17.2876 20.7708 18.3943H18.0352V26.3172L14.4465 26.3149Z" fill="#9C1210"/>
</g>
<defs>
<clipPath id="clip0_242_106">
<rect width="9.86842" height="18.0921" fill="white" transform="translate(11.5132 8.22363)"/>
</clipPath>
</defs>
</svg>
