<svg width="33" height="35" viewBox="0 0 33 35" fill="none" xmlns="http://www.w3.org/2000/svg">
<g clip-path="url(#clip0_507_80)">
<path d="M32.9999 26.2649H28.6916V35H21.1629V30.6783H23.2718V15.3312H20.0671C20.5122 14.71 20.8262 14.003 20.9896 13.2541C21.153 12.5052 21.1624 11.7303 21.0171 10.9776C21.1747 10.9776 21.2969 10.9497 21.4113 10.9497C23.7093 10.9497 26.0033 10.9497 28.3014 10.9497C28.5654 10.9497 28.6955 10.9935 28.7901 11.2883C30.1671 16.1955 31.5493 21.0988 32.9368 25.9981C32.9644 26.0618 32.9723 26.1335 32.9999 26.2649Z" fill="#9C1210"/>
<path d="M10.2445 35H2.72374V24.0702H0L0.540012 10.9736H10.3667C10.1174 12.4867 10.4579 14.0385 11.3167 15.3033H8.1278V30.6584H10.2445V35Z" fill="#9C1210"/>
<path d="M18.9322 28.4198V34.988H12.4717V28.4557H10.3274V17.5498H21.0843V28.4198H18.9322Z" fill="#9C1210"/>
<path d="M28.6759 4.35758C28.6751 5.21863 28.4217 6.06013 27.9476 6.77563C27.4736 7.49114 26.8002 8.04852 26.0127 8.37731C25.2252 8.70609 24.3588 8.79151 23.5232 8.62276C22.6877 8.454 21.9204 8.03865 21.3184 7.42923C20.7164 6.81981 20.3068 6.04369 20.1413 5.19903C19.9759 4.35436 20.062 3.47908 20.3888 2.68387C20.7156 1.88865 21.2684 1.20923 21.9773 0.731503C22.6863 0.25378 23.5195 -0.000785612 24.3716 1.82128e-06C25.5088 0.0185224 26.5942 0.483819 27.3977 1.29726C28.2012 2.11071 28.6597 3.20836 28.6759 4.35758Z" fill="#9C1210"/>
<path d="M11.3323 4.36156C11.3268 5.22192 11.0693 6.06135 10.592 6.77387C10.1148 7.48639 9.43934 8.04005 8.65096 8.36493C7.86257 8.68982 6.99658 8.77136 6.16237 8.59927C5.32815 8.42718 4.56309 8.00917 3.9638 7.39802C3.36451 6.78688 2.95787 6.00999 2.79519 5.16546C2.63252 4.32094 2.72111 3.44664 3.0498 2.65297C3.37849 1.85929 3.93254 1.18181 4.64198 0.706095C5.35141 0.230377 6.18443 -0.0222557 7.03585 -0.0199118C8.17574 0.000801031 9.26261 0.470309 10.0651 1.28865C10.8675 2.107 11.3222 3.20954 11.3323 4.36156Z" fill="#9C1210"/>
<path d="M18.936 12.0331C18.9368 12.6815 18.747 13.3156 18.3907 13.8549C18.0345 14.3942 17.5278 14.8144 16.9349 15.0624C16.342 15.3103 15.6896 15.3748 15.0604 15.2476C14.4312 15.1204 13.8535 14.8073 13.4006 14.348C12.9477 13.8887 12.64 13.3038 12.5164 12.6675C12.3929 12.0312 12.4591 11.3722 12.7066 10.774C12.9542 10.1758 13.3719 9.66529 13.9069 9.30726C14.4419 8.94924 15.07 8.75979 15.7116 8.76295C16.5656 8.77334 17.3816 9.12159 17.9844 9.73297C18.5872 10.3443 18.9288 11.1701 18.936 12.0331Z" fill="#9C1210"/>
</g>
<defs>
<clipPath id="clip0_507_80">
<rect width="33" height="35" fill="white"/>
</clipPath>
</defs>
</svg>
