<svg width="16" height="16" viewBox="0 0 16 16" fill="none" xmlns="http://www.w3.org/2000/svg">
<circle cx="8" cy="8" r="8" fill="white"/>
<path d="M9.15158 5.12568C9.13352 5.08656 9.11117 5.04948 9.08491 5.01508C8.47917 4.32585 7.6333 3.88103 6.71123 3.76679C6.44239 3.72572 6.16716 3.75952 5.91706 3.86432C5.66696 3.96912 5.45211 4.14067 5.29712 4.35933C4.70529 5.09324 4.40403 6.01121 4.44865 6.94477C4.45426 7.03685 4.44679 7.12925 4.42643 7.21932C3.97796 6.46679 3.99412 5.67477 4.22442 4.86496C3.86269 4.84248 3.50632 4.95925 3.23149 5.1903C2.95666 5.42135 2.7852 5.74835 2.75375 6.1014C2.73445 6.55199 2.75541 7.00337 2.81637 7.4504C2.82991 7.56468 2.85014 7.67812 2.87698 7.79013C2.13558 7.39511 1.78407 6.23965 2.13961 5.41998C2.5194 4.54894 3.25474 4.26452 4.32138 4.58449C4.40623 4.42845 4.48906 4.26452 4.58199 4.10849C5.11329 3.21178 5.95569 2.8286 6.98395 3.07154C7.50082 3.17394 7.98385 3.39949 8.39018 3.72819C8.7965 4.05689 9.11354 4.47857 9.31319 4.95581C9.32892 5.0079 9.36276 5.05299 9.40886 5.08328C9.45497 5.11358 9.51044 5.12717 9.56571 5.12173C10.3562 5.16083 11.1097 5.46094 11.703 5.97301C12.0534 6.25086 12.2865 6.64546 12.3576 7.08105C12.3697 7.15808 12.4889 7.24302 12.5778 7.27857C13.4626 7.64989 14.0323 8.26614 14.1737 9.22012C14.2197 9.49504 14.1662 9.77704 14.0223 10.0175C13.8785 10.258 13.6534 10.4419 13.3858 10.5375C12.9621 10.7067 12.4941 10.7385 12.0505 10.6284C12.2384 10.5711 12.3778 10.5395 12.5071 10.4882C12.7164 10.4129 12.9191 10.3211 13.1131 10.2136C13.5495 9.94499 13.6767 9.56775 13.4545 9.10952C13.0889 8.35107 12.497 7.82569 11.5152 7.90272C10.6303 7.97382 9.75157 8.13973 8.87078 8.26811C8.69704 8.29379 8.52533 8.33526 8.32735 8.37476C8.97583 7.73482 10.7515 7.17192 12.1212 7.17389C11.962 6.84898 11.697 6.58498 11.3677 6.42334C10.1152 5.7202 8.85664 5.71031 7.60213 6.41148C7.16981 6.65442 6.74759 6.91515 6.33144 7.16402C6.44659 6.44507 7.79808 5.45355 9.15158 5.12568Z" fill="#9C1210"/>
<path d="M12.2119 11.5884C10.9857 11.0057 9.76552 10.4033 8.53322 9.84237C7.60799 9.41574 6.6767 8.97133 5.64642 8.8548C4.83836 8.75802 4.0303 8.73629 3.22223 8.67308C2.88804 8.64952 2.5571 8.59328 2.23438 8.5052C2.53538 8.45977 2.84043 8.39854 3.13941 8.36892C3.89495 8.29386 4.64846 8.21881 5.404 8.1714C6.26459 8.12005 7.06053 8.38669 7.82819 8.71259C9.41823 9.3908 10.8803 10.3256 12.1534 11.4778C12.1857 11.5074 12.2119 11.541 12.2422 11.5726L12.2119 11.5884Z" fill="#9C1210"/>
<path d="M4.17412 12.0824C4.85087 10.9921 4.43067 10.0697 3.8125 9.15723C4.40441 9.37449 4.90743 10.1448 5.14581 11.1758C6.68794 10.8004 8.31814 11.007 9.71136 11.7545V10.84L9.76994 10.8203L10.376 12.5979C8.44291 11.6897 6.23626 11.5063 4.17412 12.0824Z" fill="#9C1210"/>
</svg>
