<svg width="75" height="64" viewBox="0 0 75 64" fill="none" xmlns="http://www.w3.org/2000/svg">
<g clip-path="url(#clip0_85_112)">
<path d="M6.21127 35.9169C4.86893 35.9169 3.5544 35.937 2.23986 35.9169C0.925327 35.8969 -0.0198246 35.3837 3.24428e-05 33.9485C0.0198895 32.5133 1.03256 32.0562 2.29547 32.0322C3.02264 31.9801 3.75257 31.9801 4.47974 32.0322C5.86576 32.2006 6.75932 31.7876 7.50198 30.4607C8.53454 28.6165 10.4647 28.0312 12.4464 28.0272C29.1846 27.9978 45.9227 27.9978 62.6609 28.0272C63.7279 27.9875 64.7857 28.2397 65.7224 28.7569C66.6592 29.2742 67.4401 30.0374 67.9825 30.9658C68.3082 31.495 69.1739 31.8317 69.8411 31.9681C70.6672 32.1404 71.5528 32.0121 72.4146 32.0081C73.7927 32.0081 75.0278 32.2928 75 34.0126C74.9722 35.6162 73.8086 35.9009 72.4941 35.9049H68.7848C68.614 36.8871 68.4591 37.7851 68.3042 38.6832C66.7872 47.3867 62.1485 53.8573 54.6267 58.3273C53.6969 58.908 52.8985 59.6798 52.2836 60.5924C50.8062 62.7252 48.8642 63.94 46.3264 63.96C40.5017 64.0135 34.677 64.0135 28.8523 63.96C26.1318 63.96 24.0866 62.6772 22.6331 60.3199C22.2453 59.6432 21.7001 59.0722 21.0445 58.6561C12.6569 53.9375 7.7681 46.8415 6.54888 37.1998C6.45918 36.7664 6.34646 36.3381 6.21127 35.9169ZM37.5854 31.9079C29.3222 31.9079 21.0591 31.9079 12.7959 31.9079C10.5163 31.9079 9.86499 32.6656 10.0159 34.9588C10.5918 44.3519 15.1787 51.1191 23.2169 55.6854C24.1779 56.2306 24.7657 57.4093 25.6513 58.1389C26.537 58.8686 27.6052 59.955 28.614 59.9831C34.5711 60.1595 40.5282 60.1394 46.4615 59.9831C47.3948 59.959 48.7451 59.2053 49.1422 58.4035C49.9603 56.7678 51.247 55.9741 52.6847 55.1081C60.1827 50.594 64.4838 43.9991 65.0477 35.1151C65.2105 32.5173 64.5274 31.9079 61.9857 31.8879C53.8628 31.8959 45.7347 31.9039 37.6013 31.9119L37.5854 31.9079Z" fill="#333333"/>
<path d="M38.6021 23.7175C39.8332 18.2812 45.417 14.0277 51.39 13.9836C57.2915 13.9355 62.907 18.1409 64.301 23.7495C62.3153 24.0903 60.8261 24.0342 59.4162 21.9014C55.7625 16.385 47.3074 16.4772 43.3995 21.8092C41.6719 24.1344 41.6719 24.1344 38.6021 23.7175Z" fill="#333333"/>
<path d="M21.4099 20.2376C21.4099 21.0394 21.6005 21.7049 21.3662 22.0938C20.969 22.7593 20.2423 23.7696 19.7776 23.6974C19.0826 23.6052 18.4551 22.7433 17.8793 22.1259C17.7045 21.9374 17.7879 21.4844 17.7879 21.1517C17.7879 17.6759 16.4178 14.9858 13.8165 12.6205C10.7466 9.8382 9.7141 5.99757 9.96827 1.90436C10.012 1.23485 11.0246 0.625471 11.5886 -0.0119629C12.228 0.613444 13.205 1.13062 13.4353 1.88031C14.0111 3.76455 14.0866 5.80513 14.6863 7.68135C15.008 8.68761 15.8777 9.62172 16.7077 10.3393C18.1443 11.5563 19.3069 13.0688 20.1178 14.7758C20.9287 16.4828 21.3692 18.3449 21.4099 20.2376Z" fill="#333333"/>
<path d="M33.3717 20.5622C33.3439 21.1596 33.5067 21.8732 33.2367 22.3262C32.8793 22.9316 32.2001 23.7053 31.6481 23.7294C31.0961 23.7534 30.3495 23.0438 29.9047 22.4826C29.6227 22.1298 29.6942 21.4602 29.6902 20.9311C29.6902 17.5915 28.3479 15.0057 25.8459 12.7527C22.8197 10.0305 21.7911 6.31016 21.803 2.27308C21.803 1.04231 22.2955 0.0961966 23.5504 0.0320523C24.8054 -0.032092 25.4408 0.861917 25.4368 2.10872C25.4368 5.93734 26.668 9.14454 29.8054 11.4658C30.0989 11.7344 30.3518 12.045 30.556 12.3878C32.3424 14.7353 33.33 17.6024 33.3717 20.5622Z" fill="#333333"/>
</g>
<defs>
<clipPath id="clip0_85_112">
<rect width="75" height="64" fill="white"/>
</clipPath>
</defs>
</svg>
