<svg width="72" height="64" viewBox="0 0 72 64" fill="none" xmlns="http://www.w3.org/2000/svg">
<g clip-path="url(#clip0_109_58)">
<path d="M39.7043 30.5861C35.8676 25.6637 35.113 20.8661 37.6736 15.9275C38.6849 13.9779 40.3264 12.2014 42.0602 10.8238C46.3545 7.4119 50.8535 4.2538 55.3164 1.05944C55.9545 0.604249 56.8736 0.31019 57.6401 0.354501C58.0816 0.382698 58.8763 1.31724 58.804 1.712C58.6515 2.53376 58.21 3.50455 57.5719 3.99196C53.1492 7.35148 48.6542 10.6224 44.1592 13.8812C38.9579 17.6516 38.4682 23.7986 42.9873 28.423C44.8455 30.3243 46.7719 32.0121 49.5853 32.2498C53.2455 32.5599 56.095 31.142 58.2381 28.2135C61.5612 23.6697 64.8201 19.0776 68.2354 14.6063C68.7612 13.9174 69.9893 13.3696 70.8441 13.43C72.0522 13.5187 72.3973 15.0977 71.5023 16.3303C67.8462 21.3777 64.3304 26.5418 60.3973 31.3636C55.8622 36.9265 48.8749 37.6596 42.9712 33.6355C42.7023 33.4502 42.4294 33.2689 41.8033 32.854C39.2147 35.5408 36.6582 38.2639 34.0254 40.9144C26.7973 48.1813 19.5331 55.4119 12.2809 62.6546C11.8555 63.0816 11.4702 63.706 10.9565 63.8469C10.2983 64.0282 9.28696 64.0806 8.88161 63.7019C8.44816 63.2991 8.29565 62.2558 8.46823 61.6194C8.6408 60.9829 9.35117 60.4794 9.8689 59.9597C19.1799 50.6063 28.491 41.2528 37.8221 31.9195C38.3358 31.4038 39.0221 31.0655 39.7124 30.5861H39.7043Z" fill="#333333"/>
<path d="M22.0175 41.4541C20.9339 42.4733 20.1191 43.2386 19.184 44.1168C13.7098 38.6586 7.73385 33.5951 3.64422 26.9003C-1.06347 19.1903 -0.706282 10.8962 1.87833 2.59008C2.7372 -0.161175 5.69506 -0.866109 7.63352 1.18424C16.3747 10.441 25.0275 19.7784 33.7044 29.0916C33.7847 29.1802 33.7927 29.3373 33.9091 29.6757C33.1104 30.3242 32.2355 31.0332 31.188 31.8791C22.7479 22.7995 14.1512 13.5548 5.45024 4.20136C5.17332 4.64446 4.97265 4.84185 4.91646 5.07145C3.03419 13.0916 2.92582 20.8781 8.65693 27.5569C12.1004 31.5689 15.8409 35.3192 19.477 39.1621C20.2476 39.9798 21.1466 40.6727 22.0175 41.4541Z" fill="#333333"/>
<path d="M39.9291 41.0312C40.796 40.2175 41.5224 39.5327 42.2488 38.8519L42.9191 38.2034C43.2522 38.8559 43.4649 39.6294 43.9425 40.145C50.1351 46.8197 56.3719 53.4622 62.5846 60.1168C62.994 60.5558 63.608 61.0191 63.6602 61.5186C63.7405 62.288 63.6682 63.3917 63.1906 63.8066C62.7532 64.1893 61.6816 63.9033 60.907 63.7945C60.6421 63.7583 60.4214 63.3595 60.1926 63.1137C53.691 56.0845 47.1893 49.0513 40.6916 42.0181C40.4709 41.7764 40.2903 41.4984 39.9251 41.0271L39.9291 41.0312Z" fill="#333333"/>
<path d="M64.2261 6.09875C63.6642 6.84397 63.3191 7.49654 62.7973 7.95575C57.8408 12.3465 52.8562 16.705 47.8836 21.0756C46.9124 21.9296 45.8649 22.6466 44.7732 21.4019C43.7659 20.2538 44.2435 19.1904 45.287 18.276C50.3719 13.8289 55.4207 9.34145 60.5538 4.95072C61.0916 4.4915 62.1231 4.29412 62.8214 4.45122C63.3472 4.56804 63.7003 5.44619 64.2261 6.10278V6.09875Z" fill="#333333"/>
<path d="M68.2194 9.90523C67.7378 10.727 67.4609 11.4198 67.0033 11.9475C62.6729 16.9586 58.3064 21.9415 53.9518 26.9324C53.089 27.9234 52.1137 28.6807 50.9017 27.5568C49.7137 26.4531 50.3559 25.4057 51.2187 24.4148C55.6214 19.3755 59.984 14.3 64.4428 9.31308C64.9605 8.73302 65.996 8.37451 66.7906 8.37451C67.2441 8.37451 67.6977 9.31308 68.2194 9.9012V9.90523Z" fill="#333333"/>
</g>
<defs>
<clipPath id="clip0_109_58">
<rect width="72" height="64" fill="white"/>
</clipPath>
</defs>
</svg>
