<svg width="26" height="20" viewBox="0 0 26 20" fill="none" xmlns="http://www.w3.org/2000/svg">
<g clip-path="url(#clip0_435_61)">
<path d="M0 0H0.769332C8.88664 0 17.0028 0 25.1178 0C25.4016 0 25.9043 0.0938354 25.9248 0.211128C25.9829 0.6909 25.9829 1.17572 25.9248 1.6555C25.9248 1.69906 25.7607 1.75938 25.6683 1.76944C25.4816 1.77951 25.2943 1.77951 25.1076 1.76944H0.87875C2.52716e-06 1.76944 0 1.76943 0 0.928281V0Z" fill="#9C1210"/>
<path d="M0.0239258 10.868V9.17224H25.9795C25.9795 9.64141 26 10.1173 25.9795 10.5931C25.9795 10.6903 25.788 10.8378 25.6683 10.8579C25.4203 10.878 25.171 10.878 24.9229 10.8579H0.0239258V10.868Z" fill="#9C1210"/>
<path d="M0.0239258 20V18.3244C0.208565 18.3244 0.38295 18.2909 0.560751 18.2909C8.83534 18.2909 17.1111 18.2909 25.3879 18.2909C25.8393 18.2909 26.041 18.3881 25.9966 18.8606C25.9624 19.2192 25.9966 19.5845 25.9966 19.9967L0.0239258 20Z" fill="#9C1210"/>
</g>
<defs>
<clipPath id="clip0_435_61">
<rect width="26" height="20" fill="white"/>
</clipPath>
</defs>
</svg>
