<svg width="21" height="35" viewBox="0 0 21 35" fill="none" xmlns="http://www.w3.org/2000/svg">
<g clip-path="url(#clip0_561_114)">
<path d="M5.68558 17.3347C5.32569 17.9161 4.9658 18.4936 4.60974 19.075C4.25751 19.6444 3.90527 20.2179 3.53007 20.8272C2.34702 20.0506 1.19078 19.29 0.00390625 18.5095C0.329339 17.9759 0.635629 17.4741 0.945748 16.9724C2.56908 14.3242 4.18859 11.676 5.82341 9.03573C5.91147 8.89635 6.1297 8.76494 6.28668 8.76095C9.10837 8.74503 11.9262 8.74503 14.7479 8.76095C14.8896 8.76095 15.0925 8.85653 15.1691 8.976C17.0872 12.0861 18.9939 15.2042 20.9005 18.3184C20.9273 18.3661 20.9541 18.4139 21.0039 18.5135C19.84 19.2781 18.6876 20.0387 17.4931 20.8272C16.7618 19.6444 16.0458 18.4896 15.3299 17.3308C15.2954 17.3387 15.2648 17.3507 15.2303 17.3586C15.2303 17.5179 15.2303 17.6772 15.2303 17.8405C15.2303 23.3718 15.2303 28.9072 15.2303 34.4385C15.2303 34.8022 15.0581 34.9854 14.7135 34.9881C13.5113 34.9881 12.3091 34.9881 11.0571 34.9881V24.0687H9.9813V34.9881C9.49506 34.9881 9.0586 34.9881 8.62214 34.9881C7.82196 34.9881 7.01794 34.9721 6.21776 34.996C5.88467 35.004 5.78513 34.8965 5.78896 34.55C5.80044 31.5593 5.79661 28.5727 5.79661 25.582C5.79661 22.9816 5.79661 20.3812 5.79661 17.7808C5.79661 17.6374 5.79661 17.494 5.79661 17.3507L5.69324 17.3268L5.68558 17.3347Z" fill="#9C1210"/>
<path d="M10.5171 6.51895C8.76745 6.52691 7.34321 5.05348 7.35852 3.24156C7.37384 1.46547 8.76363 0.0159349 10.4712 5.88081e-06C12.2132 -0.0159231 13.6528 1.45751 13.649 3.25749C13.6451 5.06145 12.2515 6.51099 10.5171 6.51895Z" fill="#9C1210"/>
</g>
<defs>
<clipPath id="clip0_561_114">
<rect width="21" height="35" fill="white"/>
</clipPath>
</defs>
</svg>
