<svg width="34" height="33" viewBox="0 0 34 33" fill="none" xmlns="http://www.w3.org/2000/svg">
<rect x="0.894714" width="32.8947" height="32.8947" fill="white"/>
<g clip-path="url(#clip0_242_119)">
<path d="M26.1011 16.5008C26.1011 17.7885 26.1303 19.0762 26.1011 20.3613C26.0238 23.1658 23.9459 25.1892 21.1351 25.2069C18.5995 25.2246 16.0677 25.2246 13.5397 25.2069C10.6961 25.1866 8.6435 23.1899 8.60293 20.3651C8.56489 17.7484 8.56489 15.1346 8.60293 12.5238C8.64223 9.894 10.5997 7.82256 13.2177 7.74153C15.9384 7.65712 18.6604 7.65712 21.3836 7.74153C24.0625 7.82383 26.0213 9.89399 26.0999 12.5833C26.1328 13.8849 26.1011 15.1941 26.1011 16.5008ZM24.5671 16.4717C24.5671 15.1232 24.6444 13.7697 24.5481 12.4288C24.4061 10.4587 23.17 9.29384 21.2036 9.26345C18.6317 9.21534 16.0585 9.21534 13.484 9.26345C11.5024 9.29891 10.2092 10.4384 10.1293 12.4086C10.019 15.1232 10.0216 17.8531 10.1293 20.5614C10.2117 22.5328 11.5011 23.666 13.4865 23.7014C16.0373 23.747 18.5894 23.747 21.1428 23.7014C23.1827 23.666 24.4137 22.5024 24.5506 20.4575C24.6393 19.1319 24.5671 17.7986 24.5671 16.4717Z" fill="#9C1210"/>
<path d="M21.8237 16.4589C21.8364 18.9215 19.7953 20.9892 17.3421 21.0094C14.9142 21.0297 12.8312 18.9507 12.8173 16.493C12.8033 14.0354 14.8572 11.9602 17.3078 11.9349C19.7395 11.921 21.8123 13.9962 21.8237 16.4589ZM20.3493 16.4956C20.3545 15.899 20.1826 15.3143 19.8553 14.8153C19.528 14.3163 19.06 13.9253 18.5103 13.6917C17.9607 13.4581 17.3541 13.3924 16.7671 13.5029C16.1801 13.6134 15.639 13.8952 15.2123 14.3126C14.7855 14.73 14.4921 15.2643 14.3692 15.8481C14.2463 16.4319 14.2993 17.039 14.5217 17.5927C14.744 18.1464 15.1256 18.6219 15.6183 18.9591C16.111 19.2964 16.6928 19.4802 17.2901 19.4875C18.923 19.5242 20.3341 18.1454 20.3493 16.4956Z" fill="#9C1210"/>
<path d="M23.0763 11.7551C23.0781 11.892 23.0518 12.0279 22.9992 12.1543C22.9465 12.2808 22.8686 12.3951 22.7701 12.4905C22.6717 12.5858 22.5548 12.66 22.4266 12.7087C22.2985 12.7574 22.1617 12.7794 22.0247 12.7734C21.8877 12.7675 21.7534 12.7337 21.63 12.6741C21.5065 12.6145 21.3965 12.5304 21.3067 12.4269C21.2169 12.3234 21.1492 12.2027 21.1078 12.0721C21.0663 11.9416 21.052 11.804 21.0656 11.6677C21.0986 11.1246 21.5093 10.7599 22.0798 10.7637C22.6504 10.7675 23.0916 11.1765 23.0763 11.7551Z" fill="#9C1210"/>
</g>
<defs>
<clipPath id="clip0_242_119">
<rect width="17.5439" height="17.5439" fill="white" transform="translate(8.57013 7.67554)"/>
</clipPath>
</defs>
</svg>
