<svg width="30" height="25" viewBox="0 0 30 25" fill="none" xmlns="http://www.w3.org/2000/svg">
<g clip-path="url(#clip0_649_126)">
<path d="M15.0204 3.01392C15.9392 1.92014 17.1055 1.15018 18.4293 0.633698C21.0057 -0.372163 23.5168 -0.180221 25.9042 1.20366C30.5897 3.91941 31.1739 10.0073 28.074 13.6791C27.1342 14.7927 26.0002 15.7546 24.9179 16.7473C22.1855 19.2542 19.4336 21.7407 16.6862 24.2315C16.0074 24.8476 15.2387 25.2154 14.3019 24.8601C13.9853 24.7399 13.6793 24.5414 13.4288 24.315C9.90814 21.1304 6.39046 17.9429 2.88628 14.7407C-0.284874 11.8432 -0.950157 7.22417 1.42596 3.73113C3.30406 0.969962 6.04619 -0.249818 9.44086 0.0893758C11.6497 0.309889 13.4528 1.34505 14.9251 2.94945C14.9484 2.97436 14.9836 2.98974 15.0204 3.01392Z" fill="#9C1210"/>
</g>
<defs>
<clipPath id="clip0_649_126">
<rect width="30" height="25" fill="white"/>
</clipPath>
</defs>
</svg>
