<svg width="30" height="25" viewBox="0 0 30 25" fill="none" xmlns="http://www.w3.org/2000/svg">
<g clip-path="url(#clip0_649_124)">
<path d="M15.0204 3.01373C15.9392 1.91996 17.1055 1.15 18.4293 0.633515C21.0057 -0.372346 23.5168 -0.180404 25.9042 1.20348C30.5897 3.91923 31.1739 10.0071 28.074 13.6789C27.1342 14.7925 26.0002 15.7544 24.9179 16.7471C22.1855 19.254 19.4336 21.7405 16.6862 24.2313C16.0074 24.8474 15.2387 25.2152 14.3019 24.8599C13.9853 24.7397 13.6793 24.5412 13.4288 24.3148C9.90814 21.1302 6.39046 17.9427 2.88628 14.7405C-0.284874 11.843 -0.950157 7.22399 1.42596 3.73095C3.30406 0.969779 6.04619 -0.250001 9.44086 0.0891926C11.6497 0.309705 13.4528 1.34487 14.9251 2.94927C14.9484 2.97417 14.9836 2.98956 15.0204 3.01373ZM8.25355 1.82619C5.94194 1.93901 3.91834 2.94634 2.67552 5.16905C1.1462 7.90458 1.78373 11.2943 4.2011 13.498C7.67302 16.6636 11.1614 19.8123 14.6371 22.9749C14.8989 23.213 15.0909 23.2372 15.3654 22.9874C18.8583 19.8079 22.3708 16.6482 25.8532 13.4577C27.6983 11.7676 28.4168 9.66209 28.041 7.21886C27.2873 2.31996 21.3477 0.244504 17.4843 3.19322C16.843 3.6826 16.342 4.34707 15.7794 4.93388C15.3009 5.43351 14.7196 5.44304 14.2509 4.9456C14.0221 4.70311 13.7993 4.45549 13.5863 4.19982C12.2685 2.62253 10.5502 1.87674 8.2543 1.82619H8.25355Z" fill="#9C1210"/>
</g>
<defs>
<clipPath id="clip0_649_124">
<rect width="30" height="25" fill="white"/>
</clipPath>
</defs>
</svg>
