<svg width="18" height="16" viewBox="0 0 18 16" fill="none" xmlns="http://www.w3.org/2000/svg">
<path d="M8.9814 16.0001C8.65381 15.6601 8.33863 15.3252 8.01352 14.9927C5.83953 12.7832 3.6647 10.5736 1.48905 8.36404C0.981645 7.8789 0.585323 7.28668 0.328039 6.62916C0.0707561 5.97163 -0.0412202 5.26482 9.69507e-06 4.5586C0.0614641 3.34576 0.581489 2.20371 1.45182 1.37018C1.90499 0.927054 2.43988 0.579046 3.02584 0.346113C3.6118 0.113181 4.23729 -9.75481e-05 4.86648 0.0127708C5.49566 0.0256391 6.11615 0.164402 6.69238 0.421104C7.26862 0.677806 7.78926 1.0474 8.22446 1.5087L9.01118 2.33225C9.14519 2.18114 9.25935 2.04766 9.36855 1.92677C9.79826 1.44661 10.2861 1.02351 10.8204 0.66752C11.8241 0.0698777 13.0083 -0.135192 14.1506 0.0908435C15.2928 0.316879 16.3144 0.958458 17.0233 1.89502C17.7322 2.83158 18.0797 3.99864 18.0005 5.17688C17.9212 6.35512 17.4206 7.46343 16.5929 8.29352L9.06329 15.9372C9.0484 15.9472 9.02607 15.9598 8.9814 16.0001ZM8.9814 3.91134C8.93529 3.83629 8.88387 3.76475 8.82753 3.69727C8.26666 3.13061 7.72812 2.53121 7.13002 2.00484C6.42653 1.3994 5.52489 1.08369 4.60318 1.12006C3.68147 1.15643 2.80671 1.54224 2.15167 2.20128C1.47308 2.91526 1.09845 3.87145 1.10866 4.86336C1.11888 5.85526 1.51312 6.80329 2.20627 7.50272C4.41004 9.73411 6.61134 11.968 8.81016 14.2044C8.88111 14.2837 8.94662 14.3679 9.00622 14.4563C9.07807 14.3487 9.15683 14.2461 9.24198 14.149C11.3581 11.9932 13.4766 9.83988 15.5977 7.68909C15.8322 7.46522 16.045 7.21895 16.233 6.95369C16.625 6.40645 16.8581 5.75872 16.906 5.0839C16.9538 4.40909 16.8144 3.73417 16.5035 3.13565C15.8955 1.86381 14.8284 1.22159 13.4609 1.12085C12.9229 1.08301 12.3833 1.16736 11.8815 1.36776C11.3796 1.56817 10.9281 1.87958 10.5598 2.27936C10.0386 2.81579 9.52241 3.3472 8.97891 3.91386L8.9814 3.91134Z" fill="#9C1210"/>
</svg>
