<svg width="16" height="14" viewBox="0 0 16 14" fill="none" xmlns="http://www.w3.org/2000/svg">
<g clip-path="url(#clip0_609_112)">
<path d="M16.0004 7.03037C14.5812 8.60431 13.1728 10.1599 11.7748 11.7253C11.5871 11.9354 11.3931 12.0287 11.1096 12.0144C10.6711 11.9921 10.2304 12.0024 9.79075 12.0116C9.60308 12.0156 9.53995 11.9486 9.54225 11.7625C9.55028 11.1046 9.53594 10.4462 9.55028 9.78835C9.55545 9.54616 9.46994 9.47745 9.23635 9.47917C7.93588 9.48718 6.63598 9.47745 5.3355 9.48776C5.08929 9.48947 5.00263 9.42363 5.00493 9.16713C5.01583 7.72716 5.01468 6.28663 5.0055 4.84609C5.00378 4.61478 5.06174 4.53462 5.30738 4.53691C6.60728 4.54894 7.90776 4.53691 9.20823 4.54722C9.46075 4.54894 9.56234 4.49111 9.55258 4.21342C9.53077 3.57503 9.55258 2.93549 9.54167 2.29653C9.53766 2.08067 9.61973 2.01139 9.82576 2.01483C10.3228 2.02342 10.8203 2.00968 11.3168 2.02456C11.4258 2.028 11.563 2.08468 11.6353 2.16427C13.0741 3.74393 14.5048 5.33047 15.9362 6.91701C15.9608 6.94392 15.9729 6.98228 15.9999 7.03152L16.0004 7.03037ZM10.4875 5.47475H10.1523C8.87078 5.47475 7.58924 5.47933 6.3077 5.47074C6.06838 5.46903 5.97139 5.52514 5.97713 5.78908C5.99492 6.58035 5.98344 7.37276 5.98344 8.16459C5.98344 8.5482 5.98344 8.54935 6.35878 8.54935C7.64032 8.54935 8.92185 8.55393 10.2034 8.54591C10.4238 8.54477 10.5007 8.60145 10.4938 8.83562C10.4754 9.43623 10.4869 10.0374 10.4881 10.6386C10.4881 11.0354 10.6579 11.163 11.0373 11.0348C11.1297 11.0033 11.2135 10.9231 11.2818 10.8476C12.3756 9.63719 13.4649 8.42224 14.5611 7.21359C14.6896 7.07159 14.6965 6.96453 14.5691 6.82368C13.4609 5.60014 12.3527 4.3766 11.2531 3.14504C11.0545 2.9229 10.8146 2.97385 10.5948 3.02137C10.5334 3.03454 10.4949 3.27845 10.4926 3.41701C10.4823 4.09147 10.4881 4.76651 10.4881 5.47475H10.4875Z" fill="#9C1210"/>
<path d="M0.00689028 13.9997C0.00689028 13.8532 0.00689028 13.7495 0.00689028 13.6459C0.00689028 9.22066 0.00975983 4.79542 3.38031e-06 0.369608C-0.000570528 0.079898 0.071742 -0.00254925 0.363862 -0.000259051C2.11314 0.0129096 3.86298 0.006039 5.61226 0.00661155C5.98185 0.00661155 5.98702 0.0083292 5.98185 0.39251C5.97382 1.0206 6.09377 0.985672 5.38155 0.985672C4.03343 0.985672 2.68532 0.993116 1.33778 0.979947C1.05772 0.977084 0.957283 1.04178 0.957857 1.3418C0.967613 5.12807 0.966466 8.91435 0.959579 12.7012C0.959579 12.9571 1.02615 13.0476 1.29646 13.0453C2.7496 13.0333 4.20274 13.0476 5.65587 13.0327C5.93365 13.0298 5.99276 13.122 5.98817 13.3745C5.97669 13.9997 5.98702 13.9997 5.34826 13.9997C3.68507 13.9997 2.02131 13.9997 0.358122 13.9997H0.00689028Z" fill="#9C1210"/>
</g>
<defs>
<clipPath id="clip0_609_112">
<rect width="16" height="14" fill="white"/>
</clipPath>
</defs>
</svg>
