<svg width="24" height="19" viewBox="0 0 24 19" fill="none" xmlns="http://www.w3.org/2000/svg">
<g clip-path="url(#clip0_436_67)">
<path d="M0 0H0.710152C8.20305 0 15.6949 0 23.1857 0C23.4477 0 23.9116 0.0866173 23.9306 0.194887C23.9842 0.637754 23.9842 1.08528 23.9306 1.52815C23.9306 1.56836 23.7791 1.62405 23.6938 1.63333C23.5214 1.64263 23.3486 1.64263 23.1762 1.63333H0.811154C2.33276e-06 1.63333 0 1.63332 0 0.856874V0Z" fill="#9C1210"/>
<path d="M0.0220947 10.0319V8.46667H23.9811C23.9811 8.89975 24 9.33902 23.9811 9.77828C23.9811 9.86799 23.8043 10.0041 23.6939 10.0227C23.4649 10.0413 23.2348 10.0413 23.0058 10.0227H0.0220947V10.0319Z" fill="#9C1210"/>
<path d="M0.0220947 18.4616V16.9148C0.192531 16.9148 0.353502 16.8839 0.517626 16.8839C8.15571 16.8839 15.7948 16.8839 23.435 16.8839C23.8517 16.8839 24.0379 16.9736 23.9969 17.4098C23.9653 17.7408 23.9969 18.078 23.9969 18.4585L0.0220947 18.4616Z" fill="#9C1210"/>
</g>
<defs>
<clipPath id="clip0_436_67">
<rect width="24" height="18.4615" fill="white"/>
</clipPath>
</defs>
</svg>
