<svg width="89" height="64" viewBox="0 0 89 64" fill="none" xmlns="http://www.w3.org/2000/svg">
<g clip-path="url(#clip0_85_82)">
<path d="M9.0483 50.2636C7.48987 50.2636 6.04606 50.3231 4.60681 50.2636C2.41584 50.1538 0.536481 49.1925 0.284382 46.9268C-0.380242 40.9763 -0.114374 35.1631 3.74044 30.1189C7.43942 25.2761 12.4906 23.1339 18.4309 22.9645C22.7075 22.8455 26.9885 22.9187 31.2651 22.9645C34.7074 22.992 36.3071 24.5666 36.3346 27.9996C36.385 31.9635 36.3346 35.9321 36.3346 39.9006C36.3346 44.3863 37.783 45.819 42.1924 45.8236H51.96C54.0456 38.1475 58.6383 32.6959 66.2838 29.803C66.0592 28.9928 65.8897 28.2788 65.6559 27.583C63.4466 20.9276 61.1502 14.3088 59.0554 7.60306C58.3129 5.22743 57.0479 4.19297 54.5682 4.47676C53.2727 4.57061 51.9722 4.57061 50.6767 4.47676C49.3016 4.42641 48.2657 3.8222 48.2336 2.31627C48.2015 0.810332 49.1869 0.114584 50.5804 0.0733877C52.4875 -0.0319153 54.3992 -0.0227453 56.3053 0.10085C59.1013 0.338871 61.1731 1.73953 62.264 4.40352C62.5848 5.17251 62.9333 5.92776 63.3962 6.9897C65.5047 5.95065 67.5214 4.9528 69.5382 3.97325C70.4815 3.4763 71.4552 3.03907 72.4534 2.66415C75.0661 1.78988 77.3625 3.19511 77.4954 5.94149C77.6604 9.60334 77.6512 13.2652 77.5228 16.927C77.4312 19.5956 75.0339 21.1107 72.4809 20.1815C70.7253 19.5407 69.0615 18.6344 66.8064 17.5953C68.1219 21.454 69.2036 24.8367 70.4733 28.1232C70.6475 28.5809 71.8758 28.796 72.6138 28.7823C78.015 28.6194 83.2796 30.4939 87.3593 34.0325C88.5281 35.0212 89.6511 36.1746 88.4273 37.6943C87.2034 39.214 85.9247 38.3763 84.6963 37.3556C73.9935 28.439 58.8675 33.8448 56.0853 47.595C55.6957 49.5129 54.7102 50.3002 52.7805 50.2819C47.4406 50.2316 42.0962 50.2819 36.5683 50.2819C35.427 58.8049 30.8892 63.9818 22.0245 63.8765C16.5334 63.7987 10.2492 60.2879 9.0483 50.2636ZM32.498 27.3771C27.126 27.3771 22.4782 27.3359 17.8305 27.3771C8.59907 27.4732 1.94369 36.7422 4.68469 45.6863H32.4934L32.498 27.3771ZM13.5998 50.3506C13.8106 56.1867 18.3759 60.1003 24.0046 59.5052C28.6478 59.0154 32.5714 54.3878 31.7188 50.3506H13.5998ZM73.251 6.95766L64.1708 11.4205L73.251 15.8605V6.95766Z" fill="#333333"/>
<path d="M86.7632 50.378C86.7357 57.7933 80.5616 64.0047 73.2324 64.0001C65.8253 64.0001 59.564 57.6193 59.6557 50.172C59.7428 42.8117 66.0361 36.5957 73.324 36.6644C80.612 36.733 86.7907 42.9674 86.7632 50.378ZM73.1316 59.5326C74.9499 59.5261 76.7258 58.9835 78.2364 57.9728C79.7471 56.9622 80.9252 55.5285 81.623 53.8517C82.3208 52.1749 82.5071 50.3296 82.1587 48.5474C81.8103 46.7653 80.9425 45.1255 79.6643 43.834C78.3862 42.5424 76.7546 41.6566 74.9742 41.2876C73.1938 40.9186 71.3439 41.083 69.6567 41.7599C67.9695 42.4369 66.52 43.5964 65.4902 45.093C64.4604 46.5895 63.896 48.3564 63.868 50.172C63.8565 51.3959 64.0874 52.6099 64.5474 53.7444C65.0073 54.8789 65.6873 55.9114 66.5481 56.7825C67.409 57.6537 68.4338 58.3463 69.5636 58.8207C70.6934 59.295 71.906 59.5416 73.1316 59.5464V59.5326Z" fill="#333333"/>
<path d="M25.0861 18.2497C22.2626 18.2497 19.4345 18.2497 16.611 18.2497C15.048 18.2497 13.815 17.6867 13.8609 15.9153C13.925 14.2812 15.1397 13.8052 16.611 13.8052C22.2611 13.8052 27.9142 13.8052 33.5704 13.8052C35.1242 13.8052 36.348 14.3316 36.2839 16.1396C36.2197 17.8149 35.0005 18.236 33.5704 18.2452C30.7331 18.2497 27.9096 18.2497 25.0861 18.2497Z" fill="#333333"/>
</g>
<defs>
<clipPath id="clip0_85_82">
<rect width="89" height="64" fill="white"/>
</clipPath>
</defs>
</svg>
