<svg width="16" height="16" viewBox="0 0 16 16" fill="none" xmlns="http://www.w3.org/2000/svg">
<g clip-path="url(#clip0_648_117)">
<path d="M15.9897 15.2671L15.2358 16L12.9867 13.7334L10.725 11.4667C9.05392 12.804 7.18176 13.3077 5.08847 12.8695C4.27738 12.7041 3.50679 12.3801 2.82075 11.916C2.13472 11.4518 1.54671 10.8567 1.09036 10.1647C0.20759 8.84785 -0.169807 7.25533 0.0278955 5.68133C0.225598 4.10734 0.985038 2.65825 2.1659 1.60178C4.52306 -0.493605 8.295 -0.564123 10.6547 1.47586C11.3157 2.02949 11.8613 2.70845 12.26 3.47381C12.6587 4.23918 12.9028 5.07588 12.9782 5.93597C13.0536 6.79606 12.9589 7.66261 12.6994 8.48593C12.44 9.30925 12.021 10.0732 11.4664 10.7338L15.9897 15.2671ZM12.0167 6.52544C12.0217 5.42929 11.7021 4.35629 11.0984 3.44221C10.4947 2.52813 9.63409 1.81404 8.62536 1.39031C7.61663 0.966571 6.50516 0.852226 5.43157 1.06174C4.35798 1.27125 3.37053 1.7952 2.59414 2.5673C1.81776 3.3394 1.28734 4.32496 1.06999 5.39926C0.852647 6.47356 0.958146 7.58834 1.37314 8.60253C1.78813 9.61673 2.49397 10.4848 3.40134 11.0968C4.30872 11.7089 5.37685 12.0374 6.4706 12.0409C7.93468 12.0397 9.33922 11.4599 10.3794 10.4273C11.4196 9.3947 12.0115 7.99267 12.0267 6.52544H12.0167Z" fill="#9C1210"/>
</g>
<defs>
<clipPath id="clip0_648_117">
<rect width="16" height="16" fill="white"/>
</clipPath>
</defs>
</svg>
