<svg width="148" height="27" viewBox="0 0 148 27" fill="none" xmlns="http://www.w3.org/2000/svg">
<line x1="148" y1="26" y2="26" stroke="#9C1210" stroke-width="2"/>
<path d="M33.912 17.096C32.232 17.096 30.584 16.504 29.752 15.64L30.216 14.728C31.016 15.512 32.44 16.088 33.912 16.088C36.008 16.088 36.92 15.208 36.92 14.104C36.92 11.032 30.024 12.92 30.024 8.776C30.024 7.128 31.304 5.704 34.152 5.704C35.416 5.704 36.728 6.072 37.624 6.696L37.224 7.64C36.264 7.016 35.144 6.712 34.152 6.712C32.104 6.712 31.192 7.624 31.192 8.744C31.192 11.816 38.088 9.96 38.088 14.04C38.088 15.688 36.776 17.096 33.912 17.096ZM42.3317 15.976H49.0677V17H41.1477V5.8H48.8278V6.824H42.3317V10.808H48.1237V11.816H42.3317V15.976ZM60.6989 17L59.3549 14.008H53.1149L51.7709 17H50.5389L55.6589 5.8H56.8269L61.9469 17H60.6989ZM53.5469 13.048H58.9229L56.2349 7.032L53.5469 13.048ZM73.2236 17H71.9276L69.3676 13.4C69.0796 13.432 68.7916 13.448 68.4716 13.448H65.4636V17H64.2796V5.8H68.4716C71.3196 5.8 73.0476 7.24 73.0476 9.64C73.0476 11.4 72.1196 12.632 70.4876 13.16L73.2236 17ZM68.4396 12.44C70.6796 12.44 71.8636 11.4 71.8636 9.64C71.8636 7.848 70.6796 6.824 68.4396 6.824H65.4636V12.44H68.4396ZM81.1861 17.096C77.8261 17.096 75.3301 14.68 75.3301 11.4C75.3301 8.12 77.8261 5.704 81.2021 5.704C82.8341 5.704 84.3061 6.248 85.2981 7.336L84.5461 8.088C83.6341 7.16 82.5141 6.76 81.2341 6.76C78.5301 6.76 76.4981 8.744 76.4981 11.4C76.4981 14.056 78.5301 16.04 81.2341 16.04C82.5141 16.04 83.6341 15.64 84.5461 14.696L85.2981 15.448C84.3061 16.536 82.8341 17.096 81.1861 17.096ZM96.4941 5.8H97.6621V17H96.4941V11.832H89.4861V17H88.3021V5.8H89.4861V10.792H96.4941V5.8Z" fill="#9C1210"/>
<g clip-path="url(#clip0_128_72)">
<path d="M19.9874 19.0839L19.0451 20L16.2337 17.1667L13.4066 14.3334C11.3177 16.005 8.97754 16.6347 6.36092 16.0869C5.34706 15.8801 4.38382 15.4751 3.52628 14.8949C2.66874 14.3148 1.93373 13.5709 1.36328 12.7058C0.259823 11.0598 -0.211923 9.06913 0.0352051 7.10164C0.282333 5.13414 1.23163 3.32278 2.70771 2.0022C5.65416 -0.617037 10.3691 -0.705184 13.3187 1.84479C14.145 2.53683 14.827 3.38553 15.3254 4.34224C15.8238 5.29894 16.1288 6.34483 16.2231 7.41994C16.3173 8.49504 16.1989 9.57823 15.8746 10.6074C15.5503 11.6365 15.0266 12.5914 14.3333 13.4173L19.9874 19.0839ZM15.0212 8.15677C15.0274 6.78658 14.6279 5.44533 13.8734 4.30273C13.1188 3.16013 12.0429 2.26752 10.782 1.73785C9.52113 1.20818 8.13178 1.06525 6.7898 1.32714C5.44781 1.58903 4.2135 2.24397 3.24302 3.2091C2.27254 4.17422 1.60951 5.40617 1.33783 6.74905C1.06614 8.09193 1.19802 9.48539 1.71676 10.7531C2.2355 12.0209 3.11779 13.1059 4.25201 13.871C5.38623 14.6361 6.7214 15.0468 8.08858 15.0511C9.91869 15.0496 11.6744 14.3248 12.9746 13.0341C14.2748 11.7433 15.0148 9.99081 15.0338 8.15677H15.0212Z" fill="#9C1210"/>
</g>
<defs>
<clipPath id="clip0_128_72">
<rect width="20" height="20" fill="white"/>
</clipPath>
</defs>
</svg>
