<svg width="20" height="20" viewBox="0 0 20 20" fill="none" xmlns="http://www.w3.org/2000/svg">
<g clip-path="url(#clip0_254_71)">
<path d="M19.9874 19.0839L19.0451 20L16.2337 17.1667L13.4066 14.3334C11.3177 16.005 8.97754 16.6347 6.36092 16.0869C5.34706 15.8801 4.38382 15.4751 3.52628 14.8949C2.66874 14.3148 1.93373 13.5709 1.36328 12.7058C0.259823 11.0598 -0.211923 9.06913 0.0352051 7.10164C0.282333 5.13414 1.23163 3.32278 2.70771 2.0022C5.65416 -0.617037 10.3691 -0.705184 13.3187 1.84479C14.145 2.53683 14.827 3.38553 15.3254 4.34224C15.8238 5.29894 16.1288 6.34483 16.2231 7.41994C16.3173 8.49504 16.1989 9.57823 15.8746 10.6074C15.5503 11.6365 15.0266 12.5914 14.3333 13.4173L19.9874 19.0839ZM15.0212 8.15677C15.0274 6.78658 14.6279 5.44533 13.8734 4.30273C13.1188 3.16013 12.0429 2.26752 10.782 1.73785C9.52113 1.20818 8.13178 1.06525 6.7898 1.32714C5.44781 1.58903 4.2135 2.24397 3.24302 3.2091C2.27254 4.17422 1.60951 5.40617 1.33783 6.74905C1.06614 8.09193 1.19802 9.48539 1.71676 10.7531C2.2355 12.0209 3.11779 13.1059 4.25201 13.871C5.38623 14.6361 6.7214 15.0468 8.08858 15.0511C9.91869 15.0496 11.6744 14.3248 12.9746 13.0341C14.2748 11.7433 15.0148 9.99081 15.0338 8.15677H15.0212Z" fill="#9C1210"/>
</g>
<defs>
<clipPath id="clip0_254_71">
<rect width="20" height="20" fill="white"/>
</clipPath>
</defs>
</svg>
