<svg width="29" height="28" viewBox="0 0 29 28" fill="none" xmlns="http://www.w3.org/2000/svg">
<g clip-path="url(#clip0_532_82)">
<path d="M5.54396 28.001C5.63356 27.3099 5.70224 26.7469 5.78188 26.185C6.15121 23.575 6.53249 20.967 6.87693 18.3539C6.9068 18.135 6.76444 17.8313 6.60516 17.6598C5.61663 16.5944 4.59823 15.5572 3.59277 14.509C2.47382 13.3414 1.35488 12.1717 0.235937 11C0.152178 10.9013 0.0734288 10.7982 0 10.6913C2.02884 10.3321 3.99595 9.98508 5.96406 9.636C7.12282 9.43422 8.28557 9.24859 9.43837 9.01351C9.68408 8.95012 9.89537 8.79141 10.0267 8.57162C11.4085 5.94848 12.7643 3.31222 14.1292 0.681007C14.2347 0.479227 14.3562 0.28451 14.5204 0C14.8838 0.668901 15.2083 1.24599 15.5159 1.83317C16.6787 4.0588 17.8275 6.29251 19.0091 8.50805C19.1538 8.76025 19.3911 8.94416 19.6691 9.01957C22.4197 9.52402 25.1763 9.9982 27.9318 10.4825C28.2723 10.543 28.6098 10.6247 29.001 10.7075C28.9316 10.8183 28.8547 10.9241 28.771 11.0243C26.8089 13.0764 24.8766 15.1607 22.8627 17.1563C22.2495 17.7617 22.1012 18.3448 22.2246 19.1509C22.591 21.539 22.9065 23.9362 23.243 26.3283C23.3147 26.8398 23.3923 27.3493 23.4839 27.9778C23.1853 27.8547 22.9862 27.7901 22.805 27.6983C20.2037 26.3979 17.6005 25.1014 15.0082 23.7828C14.8611 23.6963 14.694 23.6508 14.5239 23.6508C14.3538 23.6508 14.1867 23.6963 14.0396 23.7828C11.4005 25.1156 8.75346 26.4271 6.10841 27.7498C5.96306 27.8214 5.81275 27.882 5.54396 28.001Z" fill="#FFD700"/>
</g>
<defs>
<clipPath id="clip0_532_82">
<rect width="29" height="28" fill="white"/>
</clipPath>
</defs>
</svg>
