<svg width="34" height="33" viewBox="0 0 34 33" fill="none" xmlns="http://www.w3.org/2000/svg">
<rect x="0.789429" width="32.8947" height="32.8947" fill="white"/>
<g clip-path="url(#clip0_242_120)">
<path d="M15.1666 14.0927V17.0661C14.9528 17.0661 14.7637 17.0661 14.5758 17.0661C12.9583 17.0154 11.6515 18.1365 11.6219 19.5989C11.6124 19.9446 11.677 20.2885 11.8118 20.6106C11.9467 20.9327 12.1491 21.2265 12.4072 21.4748C12.6653 21.7231 12.974 21.921 13.3152 22.0567C13.6564 22.1925 14.0232 22.2635 14.3941 22.2656C14.7651 22.2676 15.1328 22.2007 15.4757 22.0687C15.8185 21.9367 16.1297 21.7423 16.391 21.4968C16.6523 21.2514 16.8584 20.9599 16.9974 20.6393C17.1363 20.3187 17.2052 19.9755 17.2001 19.6298C17.2095 15.869 17.2001 12.1083 17.2001 8.34865V7.67139H20.3431C20.4352 8.75501 20.8157 9.71859 21.6215 10.5049C22.3683 11.2295 23.2663 11.7008 24.3391 11.8198C24.7893 11.8693 24.9299 12.04 24.9145 12.4508C24.8826 13.2007 24.9051 13.9518 24.9051 14.77C23.2249 14.8735 21.8117 14.3042 20.3667 13.4705V14.161C20.3667 15.9769 20.3667 17.7951 20.3667 19.6088C20.3608 22.646 17.9717 25.071 14.6952 25.2163C11.4187 25.3617 8.91851 23.113 8.5215 20.3863C8.10205 17.5011 10.1887 14.77 13.3128 14.1962C13.8929 14.0839 14.5085 14.1236 15.1666 14.0927Z" fill="#9C1210"/>
</g>
<defs>
<clipPath id="clip0_242_120">
<rect width="16.4474" height="17.5439" fill="white" transform="translate(8.46487 7.67554)"/>
</clipPath>
</defs>
</svg>
