<svg width="16" height="20" viewBox="0 0 16 20" fill="none" xmlns="http://www.w3.org/2000/svg">
<g clip-path="url(#clip0_245_243)">
<path d="M16 20H0C0.199206 19.2948 0.389751 18.6211 0.577409 17.9474C1.0913 16.1215 1.59942 14.2956 2.12198 12.4728C2.28942 11.8936 2.12198 11.9314 2.76579 11.9314C6.27355 11.9314 9.78131 11.9314 13.2862 11.9314C13.4185 11.9096 13.5534 11.9457 13.6615 12.0317C13.7697 12.1178 13.8423 12.2469 13.8636 12.391C14.2822 13.9651 14.7297 15.5234 15.1656 17.088C15.4082 17.9443 15.6564 18.8006 15.899 19.6537C15.9423 19.7481 15.9654 19.8583 16 20ZM1.48394 18.7722H14.5103C14.4814 18.6432 14.467 18.555 14.441 18.4574C13.9646 16.7763 13.4825 15.0952 12.9975 13.4204C12.9799 13.3238 12.9285 13.2384 12.8541 13.1825C12.7796 13.1267 12.6881 13.1047 12.5991 13.1214C9.53302 13.1214 6.46794 13.1214 3.40382 13.1214C3.35527 13.1133 3.30575 13.1159 3.2581 13.1288C3.21044 13.1417 3.16561 13.1648 3.12616 13.1967C3.08672 13.2286 3.05345 13.2686 3.02827 13.3146C3.00309 13.3606 2.98649 13.4115 2.97943 13.4645C2.62432 14.7395 2.24901 16.0082 1.88524 17.2832C1.75821 17.768 1.62829 18.2528 1.48394 18.7722Z" fill="#9C1210"/>
<path d="M8.01446 9.9701C7.40588 9.97359 6.80282 9.84424 6.24079 9.5897C5.67875 9.33515 5.16912 8.96053 4.74189 8.48792C4.31466 8.01531 3.97848 7.45427 3.75315 6.83781C3.52781 6.22136 3.41789 5.56196 3.42983 4.89847C3.46279 3.59162 3.96042 2.34993 4.81757 1.43584C5.67471 0.521744 6.82421 0.00685988 8.02312 0C9.18495 0.0286876 10.2953 0.528295 11.1376 1.40137C11.9799 2.27444 12.4938 3.45836 12.5789 4.72218C12.7059 7.64678 10.4713 10.0551 8.01446 9.9701ZM8.01446 8.77067C9.77844 8.85881 11.4991 7.11475 11.4789 4.99292C11.4548 4.00522 11.0785 3.06669 10.4299 2.37667C9.78138 1.68665 8.9117 1.2995 8.00559 1.29746C7.09949 1.29541 6.22834 1.67862 5.57718 2.3657C4.92602 3.05278 4.54615 3.98959 4.51825 4.97718C4.51536 7.15253 6.24759 8.85881 8.01157 8.77067H8.01446Z" fill="#9C1210"/>
</g>
<defs>
<clipPath id="clip0_245_243">
<rect width="16" height="20" fill="white"/>
</clipPath>
</defs>
</svg>
