<svg width="61" height="49" viewBox="0 0 61 49" fill="none" xmlns="http://www.w3.org/2000/svg">
<g clip-path="url(#clip0_242_200)">
<path d="M35.34 10.75C35.2506 10.552 35.14 10.3642 35.01 10.19C32.0115 6.70054 27.8244 4.44839 23.26 3.87003C21.9292 3.6621 20.5668 3.83322 19.3288 4.3638C18.0908 4.89438 17.0272 5.76296 16.26 6.87003C13.3304 10.5858 11.8391 15.2334 12.06 19.96C12.0878 20.4262 12.0508 20.894 11.95 21.35C9.73002 17.54 9.81002 13.53 10.95 9.43003C9.15942 9.31618 7.39534 9.90737 6.03492 11.0772C4.6745 12.247 3.82575 13.9026 3.67005 15.69C3.57452 17.9714 3.67824 20.2567 3.98005 22.52C4.04703 23.0986 4.14718 23.6729 4.28004 24.24C0.610035 22.24 -1.12999 16.39 0.630011 12.24C2.51001 7.83002 6.15 6.38998 11.43 8.00998C11.85 7.21998 12.26 6.39001 12.72 5.60001C15.35 1.06001 19.52 -0.87999 24.61 0.35001C27.1686 0.868432 29.5597 2.0104 31.571 3.67459C33.5823 5.33879 35.1517 7.47373 36.14 9.88999C36.2179 10.1537 36.3854 10.382 36.6136 10.5354C36.8418 10.6887 37.1164 10.7576 37.39 10.73C41.3028 10.928 45.0327 12.4474 47.97 15.04C49.7046 16.4468 50.8584 18.4446 51.21 20.65C51.27 21.04 51.86 21.47 52.3 21.65C56.68 23.53 59.5 26.65 60.2 31.48C60.4277 32.8719 60.1628 34.2996 59.4509 35.5172C58.739 36.7347 57.6247 37.6658 56.3 38.15C54.2026 39.0064 51.8858 39.1677 49.69 38.61C50.62 38.32 51.31 38.16 51.95 37.9C52.9862 37.519 53.9895 37.0541 54.95 36.51C57.11 35.15 57.74 33.24 56.64 30.92C54.83 27.08 51.9 24.42 47.04 24.81C42.66 25.17 38.31 26.01 33.95 26.66C33.09 26.79 32.24 27 31.26 27.2C34.47 23.96 43.26 21.11 50.04 21.12C49.2521 19.475 47.9401 18.1384 46.31 17.32C40.11 13.76 33.8801 13.71 27.67 17.26C25.5301 18.49 23.44 19.81 21.38 21.07C21.95 17.43 28.64 12.41 35.34 10.75Z" fill="white"/>
<path d="M50.51 43.4699C44.44 40.5199 38.4 37.4699 32.3 34.6299C27.72 32.4699 23.11 30.2199 18.01 29.6299C14.01 29.1399 10.01 29.0299 6.01001 28.7099C4.35571 28.5906 2.71751 28.3059 1.12 27.8599C2.61 27.6299 4.12004 27.3199 5.60004 27.1699C9.34004 26.7899 13.07 26.4099 16.81 26.1699C21.07 25.9099 25.01 27.2599 28.81 28.9099C36.6809 32.3437 43.9184 37.0763 50.22 42.9099C50.38 43.0599 50.51 43.2299 50.66 43.3899L50.51 43.4699Z" fill="white"/>
<path d="M10.73 45.9699C14.08 40.4499 12 35.7799 8.94 31.1599C11.87 32.2599 14.36 36.1599 15.54 41.3799C23.1737 39.479 31.2434 40.5252 38.14 44.3099V39.6799L38.43 39.5799L41.43 48.5799C31.861 43.9817 20.9379 43.0531 10.73 45.9699Z" fill="white"/>
</g>
<defs>
<clipPath id="clip0_242_200">
<rect width="60.27" height="48.57" fill="white"/>
</clipPath>
</defs>
</svg>
