<svg width="88" height="44" viewBox="0 0 88 44" fill="none" xmlns="http://www.w3.org/2000/svg">
<g clip-path="url(#clip0_133_106)">
<path d="M75.2946 4.56388C75.2558 4.4798 75.2077 4.40008 75.1513 4.32614C73.8493 2.84469 72.0311 1.88854 70.0492 1.643C69.4713 1.55473 68.8797 1.62738 68.3421 1.85263C67.8045 2.07789 67.3427 2.44664 67.0096 2.91664C65.7375 4.49414 65.0899 6.46729 65.1858 8.47394C65.1979 8.67186 65.1818 8.87047 65.1381 9.06407C64.1741 7.44654 64.2088 5.74412 64.7038 4.00348C63.9263 3.95515 63.1603 4.20614 62.5696 4.70277C61.9789 5.19941 61.6103 5.90229 61.5427 6.66114C61.5012 7.62968 61.5463 8.5999 61.6773 9.56078C61.7064 9.80642 61.7499 10.0502 61.8076 10.291C60.214 9.44192 59.4584 6.95832 60.2226 5.19645C61.039 3.3242 62.6196 2.71284 64.9123 3.4006C65.0946 3.06521 65.2727 2.71285 65.4724 2.37746C66.6144 0.450018 68.4251 -0.373602 70.6353 0.14859C71.7463 0.368684 72.7846 0.853503 73.658 1.56003C74.5314 2.26656 75.2128 3.17294 75.642 4.19875C75.6758 4.31072 75.7485 4.40764 75.8476 4.47275C75.9467 4.53786 76.066 4.56709 76.1848 4.55538C77.8838 4.63944 79.5034 5.28452 80.7789 6.38518C81.532 6.98241 82.033 7.83058 82.1857 8.76688C82.2118 8.93245 82.468 9.11501 82.659 9.19143C84.5609 9.98957 85.7855 11.3142 86.0894 13.3647C86.1883 13.9556 86.0732 14.5618 85.7641 15.0787C85.455 15.5956 84.9711 15.9909 84.3959 16.1964C83.4852 16.56 82.4792 16.6285 81.5257 16.3917C81.9295 16.2686 82.2292 16.2007 82.5071 16.0903C82.957 15.9286 83.3926 15.7312 83.8097 15.5002C84.7477 14.9228 85.0212 14.1119 84.5436 13.127C83.7576 11.4967 82.4854 10.3674 80.375 10.533C78.4731 10.6858 76.5842 11.0425 74.691 11.3184C74.3176 11.3736 73.9485 11.4627 73.523 11.5477C74.9168 10.1721 78.7337 8.96218 81.6777 8.96643C81.3356 8.26805 80.7658 7.70058 80.058 7.35316C77.3658 5.84177 74.6606 5.82052 71.9641 7.32766C71.0349 7.84985 70.1273 8.41028 69.2328 8.94521C69.4803 7.39986 72.3853 5.26863 75.2946 4.56388Z" fill="#9C1210"/>
<path d="M81.8818 18.455C79.246 17.2026 76.6233 15.9077 73.9746 14.702C71.9858 13.785 69.984 12.8298 67.7695 12.5793C66.0326 12.3713 64.2957 12.3246 62.5588 12.1887C61.8405 12.138 61.1291 12.0172 60.4354 11.8278C61.0824 11.7302 61.7381 11.5986 62.3808 11.5349C64.0048 11.3736 65.6244 11.2122 67.2484 11.1104C69.0982 11 70.8091 11.5731 72.4591 12.2736C75.8768 13.7314 79.0196 15.7406 81.7559 18.2173C81.8254 18.2809 81.8818 18.3531 81.9469 18.421L81.8818 18.455Z" fill="#9C1210"/>
<path d="M64.6083 19.5164C66.063 17.1729 65.1598 15.1903 63.8311 13.2289C65.1033 13.6959 66.1846 15.3516 66.697 17.5678C70.0117 16.7607 73.5158 17.2049 76.5104 18.8117V16.846L76.6363 16.8036L77.939 20.6245C73.7839 18.6723 69.0408 18.2781 64.6083 19.5164Z" fill="#9C1210"/>
<path d="M5.0674 44C1.74992 44 0 42.149 0 38.6507V26.7125C0 23.2142 1.73689 21.3632 5.0674 21.3632C8.3979 21.3632 10.1348 23.2142 10.1348 26.7125V28.5168H7.52947V26.4833C7.52947 24.2586 6.25718 23.7959 5.18464 23.7959C4.11211 23.7959 2.83985 24.2586 2.83985 26.4833V38.88C2.83985 41.0749 4.11211 41.5334 5.18464 41.5334C6.25718 41.5334 7.52947 41.0749 7.52947 38.88V34.21H5.85337V31.7816H10.1522V38.6507C10.1348 42.149 8.38053 44 5.0674 44Z" fill="#9C1210"/>
<path d="M21.5115 43.7453L20.8732 39.5805H15.5973L14.959 43.7453H12.4536L16.0707 21.6349H20.7342L24.3513 43.7453H21.5115ZM15.936 37.3049H20.4954L18.6456 25.2053H17.7772L15.936 37.3049Z" fill="#9C1210"/>
<path d="M31.503 44C28.1899 44 26.4356 42.149 26.4356 38.6507V37.6658H29.041V38.88C29.041 41.0749 30.3132 41.5334 31.3858 41.5334C32.4583 41.5334 33.7306 41.0749 33.7306 38.88C33.7306 36.5238 32.1283 35.0888 30.4261 33.5689C28.5069 31.8707 26.5181 30.0749 26.5181 26.7125C26.5181 24.2714 27.3866 21.3632 31.5204 21.3632C35.6542 21.3632 36.5183 24.2714 36.5183 26.7125V27.0097H33.913V26.4833C33.913 24.7002 33.1444 23.7959 31.6333 23.7959C30.1222 23.7959 29.3536 24.7002 29.3536 26.4833C29.3536 28.8352 30.9602 30.2744 32.6581 31.7943C34.5817 33.4925 36.5661 35.2883 36.5661 38.6507C36.5617 42.149 34.8248 44 31.503 44Z" fill="#9C1210"/>
<path d="M42.3369 43.7368V24.0591H38.481V21.6264H49.0197V24.0591H45.1594V43.7368H42.3369Z" fill="#9C1210"/>
<path d="M59.3803 43.7368V33.8958H54.3172V43.7368H51.4991V21.6264H54.3172V31.4674H59.3803V21.6264H62.2679V43.7368H59.3803Z" fill="#9C1210"/>
<path d="M70.6875 44C67.357 44 65.5202 42.0981 65.5202 38.6507V26.7125C65.5202 23.2609 67.357 21.3632 70.6875 21.3632C74.018 21.3632 75.8547 23.2609 75.8547 26.7125V38.6507C75.8547 42.0981 74.0223 44 70.6875 44ZM70.6875 23.7959C69.6193 23.7959 68.3427 24.2586 68.3427 26.4833V38.88C68.3427 41.1004 69.6193 41.5674 70.6875 41.5674C71.7557 41.5674 73.0366 41.1004 73.0366 38.88V26.4833C73.0366 24.2586 71.76 23.7916 70.6875 23.7916V23.7959Z" fill="#9C1210"/>
<path d="M79.1071 43.7368V21.6264H88V24.0591H81.9295V31.8283H86.693V34.2567H81.9295V43.7368H79.1071Z" fill="#9C1210"/>
</g>
<defs>
<clipPath id="clip0_133_106">
<rect width="88" height="44" fill="white"/>
</clipPath>
</defs>
</svg>
