<svg width="60" height="60" viewBox="0 0 60 60" fill="none" xmlns="http://www.w3.org/2000/svg">
<circle cx="30" cy="30" r="30" fill="#25D366"/>
<g clip-path="url(#clip0_533_87)">
<path d="M14.3999 45.6008C14.7322 44.3405 15.0306 43.2151 15.3348 42.0954C15.7008 40.7169 16.1007 39.3496 16.433 37.9654C16.4623 37.6543 16.3891 37.3422 16.2246 37.0764C14.7921 34.3366 14.2302 31.2254 14.6139 28.1581C14.9923 24.2268 16.914 20.6054 19.9585 18.0863C22.2694 16.1188 25.1105 14.8768 28.1252 14.5165C31.14 14.1561 34.1941 14.6933 36.9044 16.0607C41.8998 18.6828 44.8903 22.8128 45.5098 28.4788C46.1912 34.6682 42.7671 40.5875 37.4732 43.4458C34.889 44.8511 31.9629 45.5059 29.0256 45.3364C26.9129 45.2268 24.8475 44.6706 22.9658 43.7047C22.7116 43.5775 22.4219 43.5398 22.1436 43.5977C19.6206 44.2336 17.0919 44.8975 14.3999 45.6008ZM17.9704 41.966C18.1836 41.9546 18.396 41.9321 18.6068 41.8985C19.8064 41.6003 21.0116 41.3358 22.1886 40.9701C22.4187 40.8955 22.6627 40.8734 22.9025 40.9056C23.1422 40.9377 23.3717 41.0232 23.574 41.1558C25.0736 42.0178 26.7321 42.5683 28.4498 42.7742C30.1676 42.9802 31.9093 42.8373 33.5704 42.3543C36.2707 41.5972 38.6553 39.9918 40.3714 37.7756C42.0876 35.5594 43.0441 32.8502 43.0994 30.0487C43.1613 25.6149 41.117 22.1713 37.6591 19.5043C34.4828 17.0623 30.901 16.4996 27.0094 17.3155C24.5122 17.92 22.2466 19.2417 20.4923 21.1174C18.738 22.9932 17.5715 25.3409 17.1369 27.8711C16.7022 30.9316 17.3389 34.0482 18.9391 36.6938C19.101 37.0692 19.1574 37.4816 19.1024 37.8867C19.0257 38.282 18.9145 38.6698 18.7701 39.0458C18.5111 39.9798 18.2577 40.9195 17.9704 41.966Z" fill="white"/>
<path d="M24.8414 22.6375C25.1019 22.6193 25.3608 22.6893 25.5765 22.8364C25.7921 22.9834 25.9518 23.1988 26.0297 23.4477C26.4296 24.4324 26.8689 25.4002 27.2406 26.3905C27.2944 26.6533 27.2524 26.9267 27.1223 27.1614C26.9903 27.4278 26.8237 27.6756 26.6267 27.8985C25.9509 28.7818 25.9678 28.765 26.5535 29.7496C27.7249 31.7077 29.5439 32.8555 31.5601 33.7446C31.7022 33.7772 31.8499 33.7764 31.9917 33.7423C32.1334 33.7081 32.2652 33.6415 32.3767 33.5476C32.7897 33.1402 33.1666 32.6978 33.5031 32.2254C33.5452 32.1463 33.6031 32.0767 33.6731 32.0207C33.7431 31.9648 33.8238 31.9237 33.9103 31.9C33.9968 31.8763 34.0872 31.8705 34.176 31.8829C34.2647 31.8953 34.3501 31.9257 34.4267 31.9722C35.4235 32.4504 36.4485 32.8724 37.4284 33.3845C37.5462 33.475 37.6422 33.5907 37.7095 33.7231C37.7767 33.8555 37.8134 34.0013 37.817 34.1497C37.7756 34.9315 37.4561 35.6729 36.9161 36.2402C36.3761 36.8076 35.6511 37.1637 34.8716 37.2444C33.6785 37.3645 32.4747 37.1705 31.3799 36.6817C28.2768 35.5564 25.9678 33.4351 24.0586 30.8412C23.1595 29.7822 22.54 28.5152 22.2564 27.1557C22.1096 26.4323 22.1545 25.6832 22.3867 24.9825C22.6188 24.2818 23.0301 23.6538 23.5799 23.1608C23.9705 22.9215 24.3961 22.7449 24.8414 22.6375Z" fill="white"/>
</g>
<defs>
<clipPath id="clip0_533_87">
<rect width="31.2" height="31.2" fill="white" transform="translate(14.3999 14.4)"/>
</clipPath>
</defs>
</svg>
